<?xml version="1.0" encoding="UTF-8" standalone="no"?>
<svg
   xmlns:dc="http://purl.org/dc/elements/1.1/"
   xmlns:cc="http://creativecommons.org/ns#"
   xmlns:rdf="http://www.w3.org/1999/02/22-rdf-syntax-ns#"
   xmlns:svg="http://www.w3.org/2000/svg"
   xmlns="http://www.w3.org/2000/svg"
   xmlns:sodipodi="http://sodipodi.sourceforge.net/DTD/sodipodi-0.dtd"
   xmlns:inkscape="http://www.inkscape.org/namespaces/inkscape"
   version="1.1"
   id="Capa_1"
   x="0px"
   y="0px"
   viewBox="0 0 512.004 512.004"
   style="enable-background:new 0 0 512.004 512.004;"
   xml:space="preserve"
   sodipodi:docname="light-bulb.svg"
   inkscape:version="1.0.2 (e86c870879, 2021-01-15, custom)"><metadata
   id="metadata51"><rdf:RDF><cc:Work
       rdf:about=""><dc:format>image/svg+xml</dc:format><dc:type
         rdf:resource="http://purl.org/dc/dcmitype/StillImage" /><dc:title /></cc:Work></rdf:RDF></metadata><defs
   id="defs49" /><sodipodi:namedview
   pagecolor="#ffffff"
   bordercolor="#666666"
   borderopacity="1"
   objecttolerance="10"
   gridtolerance="10"
   guidetolerance="10"
   inkscape:pageopacity="0"
   inkscape:pageshadow="2"
   inkscape:window-width="1662"
   inkscape:window-height="961"
   id="namedview47"
   showgrid="false"
   inkscape:zoom="0.67878956"
   inkscape:cx="145.45037"
   inkscape:cy="232.42588"
   inkscape:window-x="0"
   inkscape:window-y="27"
   inkscape:window-maximized="0"
   inkscape:current-layer="Capa_1"
   inkscape:document-rotation="0" />
<g
   id="g14"
   style="fill:#f2f2f2"
   transform="matrix(0.88092476,0,0,0.88288997,30.483421,29.980371)">
	<g
   id="g12"
   style="fill:#f2f2f2">
		<g
   id="g10"
   style="fill:#f2f2f2">
			<path
   d="M 319.933,373.338 H 192.082 c -5.888,0 -10.667,7.168 -10.667,16 0,8.832 4.768,16 10.667,16 h 127.851 c 5.888,0 10.667,-7.168 10.667,-16 0,-8.832 -4.779,-16 -10.667,-16 z"
   id="path2"
   style="fill:#f2f2f2" />
			<path
   d="M 319.933,426.671 H 192.082 c -5.888,0 -10.667,7.168 -10.667,16 0,8.832 4.768,16 10.667,16 h 127.851 c 5.888,0 10.667,-7.168 10.667,-16 0,-8.832 -4.779,-16 -10.667,-16 z"
   id="path4"
   style="fill:#f2f2f2" />
			<path
   d="m 287.997,480.004 h -64 c -5.888,0 -10.667,7.168 -10.667,16 0,8.832 4.768,16 10.667,16 h 64 c 5.888,0 10.667,-7.168 10.667,-16 0,-8.832 -4.811,-16 -10.667,-16 z"
   id="path6"
   style="fill:#f2f2f2" />
			<path
   d="M 403.378,107.876 C 399.463,97.497 390.311,73.188 368.178,49.721 344.829,24.964 317.042,9.188 285.575,2.905 c -19.522,-3.874 -39.614,-3.874 -59.136,0 -31.424,6.293 -59.221,22.037 -82.603,46.805 -22.059,23.36 -31.275,47.744 -35.2,58.155 -4.981,13.216 -14.261,37.803 -11.648,70.144 2.88,35.584 18.368,61.579 23.467,70.123 3.2,5.28 9.6,15.371 22.453,33.483 3.2,4.576 6.005,8.32 8.405,11.573 5.973,8.107 9.269,12.576 12.661,19.627 4.629,9.618 8.037,19.777 10.144,30.24 1.013,4.963 5.377,8.529 10.443,8.533 h 142.901 c 5.137,-0.007 9.54,-3.674 10.475,-8.725 1.899,-10.382 5.272,-20.439 10.016,-29.867 3.712,-7.339 7.136,-12.032 13.355,-20.565 2.251,-3.083 4.811,-6.603 7.861,-10.891 8.843,-12.459 16.491,-23.221 22.4,-33.461 5.653,-9.6 20.672,-35.2 23.467,-70.091 2.54,-32.394 -6.698,-56.928 -11.658,-70.112 z"
   id="path8"
   style="fill:#f2f2f2" />
		</g>
	</g>
</g>
<g
   id="g16">
</g>
<g
   id="g18">
</g>
<g
   id="g20">
</g>
<g
   id="g22">
</g>
<g
   id="g24">
</g>
<g
   id="g26">
</g>
<g
   id="g28">
</g>
<g
   id="g30">
</g>
<g
   id="g32">
</g>
<g
   id="g34">
</g>
<g
   id="g36">
</g>
<g
   id="g38">
</g>
<g
   id="g40">
</g>
<g
   id="g42">
</g>
<g
   id="g44">
</g>
</svg>
