<?xml version="1.0" encoding="UTF-8" standalone="no"?>
<svg
   xmlns:dc="http://purl.org/dc/elements/1.1/"
   xmlns:cc="http://creativecommons.org/ns#"
   xmlns:rdf="http://www.w3.org/1999/02/22-rdf-syntax-ns#"
   xmlns:svg="http://www.w3.org/2000/svg"
   xmlns="http://www.w3.org/2000/svg"
   xmlns:sodipodi="http://sodipodi.sourceforge.net/DTD/sodipodi-0.dtd"
   xmlns:inkscape="http://www.inkscape.org/namespaces/inkscape"
   version="1.1"
   width="32"
   height="32"
   viewBox="0 0 32 32"
   id="svg18"
   sodipodi:docname="rotate_left.svg"
   inkscape:version="1.0.2 (e86c870879, 2021-01-15, custom)">
  <metadata
     id="metadata24">
    <rdf:RDF>
      <cc:Work
         rdf:about="">
        <dc:format>image/svg+xml</dc:format>
        <dc:type
           rdf:resource="http://purl.org/dc/dcmitype/StillImage" />
        <dc:title>rotate-left-2</dc:title>
      </cc:Work>
    </rdf:RDF>
  </metadata>
  <defs
     id="defs22" />
  <sodipodi:namedview
     pagecolor="#ffffff"
     bordercolor="#666666"
     borderopacity="1"
     objecttolerance="10"
     gridtolerance="10"
     guidetolerance="10"
     inkscape:pageopacity="0"
     inkscape:pageshadow="2"
     inkscape:window-width="1920"
     inkscape:window-height="1136"
     id="namedview20"
     showgrid="false"
     inkscape:zoom="7.6796875"
     inkscape:cx="6.4487172"
     inkscape:cy="23.687405"
     inkscape:window-x="0"
     inkscape:window-y="27"
     inkscape:window-maximized="1"
     inkscape:current-layer="svg18" />
  <title
     id="title14">rotate-left-2</title>
  <path
     d="M10.172 5.337c-0.181 0.023-0.355 0.151-0.464 0.413l-2.966 7.145c-0.219 0.522 0.058 0.877 0.619 0.799l7.583-1.083c0.561-0.077 0.538-0.445 0.206-0.903l-1.315-1.806c0.861-0.351 1.793-0.542 2.786-0.542 4.117 0 7.428 3.311 7.428 7.428-0.003 0.043-0.003 0.086 0 0.129l-0.052 0.697-0.103 0.619 0.31 1.032 1.006 0.413 0.929-0.516 0.206-0.542 0.129-0.748v-0.129l0.052-0.877v-0.077c0-5.455-4.449-9.904-9.904-9.904-1.525 0-2.982 0.358-4.282 0.98l-1.625-2.218c-0.168-0.229-0.361-0.332-0.542-0.31v0zM8.779 18.078l-1.057 0.052-0.645 0.851 0.052 0.593 0.103 0.413 0.052 0.103 0.284 0.696 0.052 0.103 0.181 0.413 0.851 0.645 1.032-0.232 0.464-0.954-0.129-0.567-0.206-0.413-0.206-0.516-0.103-0.413-0.722-0.774zM23.945 21.018l-1.057 0.026-0.464 0.361-0.026 0.052-0.026 0.026-0.052 0.077-0.413 0.438-0.077 0.077-0.387 0.335-0.387 1.006 0.516 0.928 1.032 0.181 0.516-0.284 0.464-0.413 0.077-0.077 0.567-0.619 0.078-0.103 0.103-0.155 0.206-1.032-0.671-0.825zM11.204 22.669l-0.774 0.722 0.077 1.057 0.387 0.413 0.593 0.413 0.103 0.052 0.671 0.361 0.103 0.052 0.155 0.052 1.058-0.026 0.645-0.851-0.258-1.032-0.464-0.361-0.077-0.026-0.077-0.052-0.49-0.258-0.103-0.052-0.49-0.335-1.058-0.129zM18.916 23.984l-0.567 0.026-0.181 0.052h-0.026l-0.077 0.026-0.619 0.077-0.49 0.026-0.928 0.516-0.206 1.032 0.697 0.825 0.567 0.103 0.49-0.026h0.129l0.851-0.129 0.129-0.026 0.284-0.077 0.8-0.697v-1.057l-0.851-0.671z"
     id="path16"
     style="fill:#ececec" />
</svg>
