<?xml version="1.0" encoding="UTF-8" standalone="no"?>
<svg
   xmlns:dc="http://purl.org/dc/elements/1.1/"
   xmlns:cc="http://creativecommons.org/ns#"
   xmlns:rdf="http://www.w3.org/1999/02/22-rdf-syntax-ns#"
   xmlns:svg="http://www.w3.org/2000/svg"
   xmlns="http://www.w3.org/2000/svg"
   xmlns:sodipodi="http://sodipodi.sourceforge.net/DTD/sodipodi-0.dtd"
   xmlns:inkscape="http://www.inkscape.org/namespaces/inkscape"
   width="210mm"
   height="297mm"
   viewBox="0 0 210 297"
   version="1.1"
   id="svg8"
   inkscape:version="1.0.2 (e86c870879, 2021-01-15, custom)"
   sodipodi:docname="holder2115.svg">
  <defs
     id="defs2" />
  <sodipodi:namedview
     id="base"
     pagecolor="#ffffff"
     bordercolor="#666666"
     borderopacity="1.0"
     inkscape:pageopacity="0.0"
     inkscape:pageshadow="2"
     inkscape:zoom="1"
     inkscape:cx="429.0452"
     inkscape:cy="778.17555"
     inkscape:document-units="mm"
     inkscape:current-layer="layer1"
     inkscape:document-rotation="0"
     showgrid="false"
     inkscape:window-width="1920"
     inkscape:window-height="1136"
     inkscape:window-x="0"
     inkscape:window-y="27"
     inkscape:window-maximized="1" />
  <metadata
     id="metadata5">
    <rdf:RDF>
      <cc:Work
         rdf:about="">
        <dc:format>image/svg+xml</dc:format>
        <dc:type
           rdf:resource="http://purl.org/dc/dcmitype/StillImage" />
        <dc:title />
      </cc:Work>
    </rdf:RDF>
  </metadata>
  <g
     inkscape:label="Livello 1"
     inkscape:groupmode="layer"
     id="layer1">
    <rect
       style="fill:#000000;stroke-width:0.113989"
       id="rect835-0"
       width="0.2"
       height="189.94421"
       x="169.88974"
       y="80.352997" />
    <rect
       style="fill:#000000;stroke-width:0.113989"
       id="rect835-7-2"
       width="0.2"
       height="189.94571"
       x="156.56898"
       y="80.352997" />
    <rect
       style="fill:#000000;stroke-width:0.195628"
       id="rect857-10"
       width="22"
       height="0.2"
       x="152.40541"
       y="85.064445" />
    <circle
       style="opacity:0.8;fill:none;stroke:#000000;stroke-width:0.157156;stroke-miterlimit:4;stroke-dasharray:none;stroke-opacity:1"
       id="path881-1"
       sodipodi:type="arc"
       sodipodi:cx="156.66898"
       sodipodi:cy="85.352997"
       sodipodi:rx="2.4214182"
       sodipodi:ry="2.4214087"
       sodipodi:start="0"
       sodipodi:end="6.2466047"
       sodipodi:arc-type="arc"
       sodipodi:open="true"
       d="m 159.09039,85.352997 a 2.4214182,2.4214087 0 0 1 -2.39927,2.421307 2.4214182,2.4214087 0 0 1 -2.44316,-2.377021 2.4214182,2.4214087 0 0 1 2.35459,-2.464784 2.4214182,2.4214087 0 0 1 2.48622,2.331941" />
    <circle
       style="opacity:0.8;fill:none;stroke:#000000;stroke-width:0.157156;stroke-miterlimit:4;stroke-dasharray:none;stroke-opacity:1"
       id="path881-2-1"
       sodipodi:type="arc"
       sodipodi:cx="169.86897"
       sodipodi:cy="85.352997"
       sodipodi:rx="2.4214182"
       sodipodi:ry="2.4214087"
       sodipodi:start="0"
       sodipodi:end="6.2466047"
       sodipodi:arc-type="arc"
       sodipodi:open="true"
       d="m 172.29039,85.352997 a 2.4214182,2.4214087 0 0 1 -2.39927,2.421307 2.4214182,2.4214087 0 0 1 -2.44316,-2.377021 2.4214182,2.4214087 0 0 1 2.35459,-2.464784 2.4214182,2.4214087 0 0 1 2.48622,2.331941" />
    <circle
       style="opacity:0.8;fill:none;stroke:#000000;stroke-width:0.157156;stroke-miterlimit:4;stroke-dasharray:none;stroke-opacity:1"
       id="path881-7-0"
       sodipodi:type="arc"
       sodipodi:cx="156.66898"
       sodipodi:cy="262.82288"
       sodipodi:rx="2.4214182"
       sodipodi:ry="2.4214087"
       sodipodi:start="0"
       sodipodi:end="6.2466047"
       sodipodi:arc-type="arc"
       sodipodi:open="true"
       d="m 159.09039,262.82288 a 2.4214182,2.4214087 0 0 1 -2.39927,2.4213 2.4214182,2.4214087 0 0 1 -2.44316,-2.37702 2.4214182,2.4214087 0 0 1 2.35459,-2.46478 2.4214182,2.4214087 0 0 1 2.48622,2.33194" />
    <circle
       style="opacity:0.8;fill:none;stroke:#000000;stroke-width:0.157156;stroke-miterlimit:4;stroke-dasharray:none;stroke-opacity:1"
       id="path881-7-2-8"
       sodipodi:type="arc"
       sodipodi:cx="169.98982"
       sodipodi:cy="262.82288"
       sodipodi:rx="2.4214182"
       sodipodi:ry="2.4214087"
       sodipodi:start="0"
       sodipodi:end="6.2466047"
       sodipodi:arc-type="arc"
       sodipodi:open="true"
       d="m 172.41124,262.82288 a 2.4214182,2.4214087 0 0 1 -2.39927,2.4213 2.4214182,2.4214087 0 0 1 -2.44316,-2.37702 2.4214182,2.4214087 0 0 1 2.35459,-2.46478 2.4214182,2.4214087 0 0 1 2.48622,2.33194" />
    <rect
       style="fill:#000000;stroke-width:0.128131"
       id="rect835-7-3-7"
       width="0.2"
       height="240"
       x="151.27339"
       y="27.8526" />
    <rect
       style="fill:#000000;stroke-width:0.279785"
       id="rect857-9-5"
       width="45"
       height="0.2"
       x="140.27292"
       y="32.852608" />
    <rect
       style="fill:#000000;stroke-width:0.167157;stroke-miterlimit:4;stroke-dasharray:none"
       id="rect857-1-0-6"
       width="16.036221"
       height="0.2"
       x="140.80209"
       y="262.85254" />
    <circle
       style="opacity:0.8;fill:none;stroke:#000000;stroke-width:0.157156;stroke-miterlimit:4;stroke-dasharray:none;stroke-opacity:1"
       id="path881-8-9"
       sodipodi:type="arc"
       sodipodi:cx="151.3734"
       sodipodi:cy="32.952606"
       sodipodi:rx="2.4214182"
       sodipodi:ry="2.4214087"
       sodipodi:start="0"
       sodipodi:end="6.2466047"
       sodipodi:arc-type="arc"
       sodipodi:open="true"
       d="m 153.79482,32.952606 a 2.4214182,2.4214087 0 0 1 -2.39928,2.421308 2.4214182,2.4214087 0 0 1 -2.44316,-2.377022 2.4214182,2.4214087 0 0 1 2.35459,-2.464783 2.4214182,2.4214087 0 0 1 2.48623,2.33194" />
    <circle
       style="opacity:0.8;fill:none;stroke:#000000;stroke-width:0.157156;stroke-miterlimit:4;stroke-dasharray:none;stroke-opacity:1"
       id="path881-2-8-8"
       sodipodi:type="arc"
       sodipodi:cx="175.3735"
       sodipodi:cy="32.952606"
       sodipodi:rx="2.4214182"
       sodipodi:ry="2.4214087"
       sodipodi:start="0"
       sodipodi:end="6.2466047"
       sodipodi:arc-type="arc"
       sodipodi:open="true"
       d="m 177.79492,32.952606 a 2.4214182,2.4214087 0 0 1 -2.39927,2.421308 2.4214182,2.4214087 0 0 1 -2.44316,-2.377022 2.4214182,2.4214087 0 0 1 2.35459,-2.464783 2.4214182,2.4214087 0 0 1 2.48622,2.33194" />
    <circle
       style="opacity:0.8;fill:none;stroke:#000000;stroke-width:0.157156;stroke-miterlimit:4;stroke-dasharray:none;stroke-opacity:1"
       id="path881-7-5-7"
       sodipodi:type="arc"
       sodipodi:cx="151.3734"
       sodipodi:cy="262.95255"
       sodipodi:rx="2.4214182"
       sodipodi:ry="2.4214087"
       sodipodi:start="0"
       sodipodi:end="6.2466047"
       sodipodi:arc-type="arc"
       sodipodi:open="true"
       d="m 153.79482,262.95255 a 2.4214182,2.4214087 0 0 1 -2.39928,2.4213 2.4214182,2.4214087 0 0 1 -2.44316,-2.37702 2.4214182,2.4214087 0 0 1 2.35459,-2.46478 2.4214182,2.4214087 0 0 1 2.48623,2.33194" />
    <circle
       style="opacity:0.8;fill:none;stroke:#000000;stroke-width:0.157156;stroke-miterlimit:4;stroke-dasharray:none;stroke-opacity:1"
       id="path881-7-2-0-2"
       sodipodi:type="arc"
       sodipodi:cx="175.3735"
       sodipodi:cy="262.95255"
       sodipodi:rx="2.4214182"
       sodipodi:ry="2.4214087"
       sodipodi:start="0"
       sodipodi:end="6.2466047"
       sodipodi:arc-type="arc"
       sodipodi:open="true"
       d="m 177.79492,262.95255 a 2.4214182,2.4214087 0 0 1 -2.39927,2.4213 2.4214182,2.4214087 0 0 1 -2.44316,-2.37702 2.4214182,2.4214087 0 0 1 2.35459,-2.46478 2.4214182,2.4214087 0 0 1 2.48622,2.33194" />
    <rect
       style="fill:#000000;stroke-width:0.128132"
       id="rect835-9-8"
       width="0.2"
       height="240"
       x="175.27348"
       y="27.8526" />
    <rect
       style="fill:#000000;stroke-width:0.167157;stroke-miterlimit:4;stroke-dasharray:none"
       id="rect857-1-0-6-7"
       width="16.036221"
       height="0.2"
       x="170.13678"
       y="262.8526" />
    <rect
       style="fill:none;stroke:#000000;stroke-width:0.201872;stroke-miterlimit:4;stroke-dasharray:1.21123, 0.201872;stroke-dashoffset:0"
       id="rect892-4"
       width="59.798126"
       height="19.798128"
       x="133.3239"
       y="13.153536"
       ry="0" />
    <rect
       style="fill:none;stroke:#000000;stroke-width:0.201872;stroke-miterlimit:4;stroke-dasharray:1.21123, 0.201872;stroke-dashoffset:0"
       id="rect892-5-1"
       width="59.798126"
       height="19.798128"
       x="133.3239"
       y="262.95352"
       ry="0" />
    <rect
       style="fill:#000000;stroke-width:0.0578958"
       id="rect835-0-0"
       width="0.2"
       height="49"
       x="110.09151"
       y="218.05299" />
    <rect
       style="fill:#000000;stroke-width:0.0578957"
       id="rect835-7-2-5"
       width="0.2"
       height="49"
       x="96.770737"
       y="218.05299" />
    <rect
       style="fill:#000000;stroke-width:0.195628"
       id="rect857-10-9"
       width="22"
       height="0.2"
       x="92.503983"
       y="222.953" />
    <circle
       style="opacity:0.8;fill:none;stroke:#000000;stroke-width:0.157156;stroke-miterlimit:4;stroke-dasharray:none;stroke-opacity:1"
       id="path881-1-4"
       sodipodi:type="arc"
       sodipodi:cx="96.870712"
       sodipodi:cy="223.05299"
       sodipodi:rx="2.4214182"
       sodipodi:ry="2.4214087"
       sodipodi:start="0"
       sodipodi:end="6.2466047"
       sodipodi:arc-type="arc"
       sodipodi:open="true"
       d="m 99.29213,223.05299 a 2.4214182,2.4214087 0 0 1 -2.399274,2.42131 2.4214182,2.4214087 0 0 1 -2.443157,-2.37702 2.4214182,2.4214087 0 0 1 2.354589,-2.46478 2.4214182,2.4214087 0 0 1 2.486223,2.33194" />
    <circle
       style="opacity:0.8;fill:none;stroke:#000000;stroke-width:0.157156;stroke-miterlimit:4;stroke-dasharray:none;stroke-opacity:1"
       id="path881-2-1-6"
       sodipodi:type="arc"
       sodipodi:cx="110.07072"
       sodipodi:cy="223.05299"
       sodipodi:rx="2.4214182"
       sodipodi:ry="2.4214087"
       sodipodi:start="0"
       sodipodi:end="6.2466047"
       sodipodi:arc-type="arc"
       sodipodi:open="true"
       d="m 112.49214,223.05299 a 2.4214182,2.4214087 0 0 1 -2.39928,2.42131 2.4214182,2.4214087 0 0 1 -2.44316,-2.37702 2.4214182,2.4214087 0 0 1 2.35459,-2.46478 2.4214182,2.4214087 0 0 1 2.48623,2.33194" />
    <circle
       style="opacity:0.8;fill:none;stroke:#000000;stroke-width:0.157156;stroke-miterlimit:4;stroke-dasharray:none;stroke-opacity:1"
       id="path881-7-0-9"
       sodipodi:type="arc"
       sodipodi:cx="96.870834"
       sodipodi:cy="262.82288"
       sodipodi:rx="2.4214182"
       sodipodi:ry="2.4214087"
       sodipodi:start="0"
       sodipodi:end="6.2466047"
       sodipodi:arc-type="arc"
       sodipodi:open="true"
       d="m 99.292253,262.82288 a 2.4214182,2.4214087 0 0 1 -2.399275,2.4213 2.4214182,2.4214087 0 0 1 -2.443157,-2.37702 2.4214182,2.4214087 0 0 1 2.354589,-2.46478 2.4214182,2.4214087 0 0 1 2.486223,2.33194" />
    <circle
       style="opacity:0.8;fill:none;stroke:#000000;stroke-width:0.157156;stroke-miterlimit:4;stroke-dasharray:none;stroke-opacity:1"
       id="path881-7-2-8-2"
       sodipodi:type="arc"
       sodipodi:cx="110.19167"
       sodipodi:cy="262.82288"
       sodipodi:rx="2.4214182"
       sodipodi:ry="2.4214087"
       sodipodi:start="0"
       sodipodi:end="6.2466047"
       sodipodi:arc-type="arc"
       sodipodi:open="true"
       d="m 112.61309,262.82288 a 2.4214182,2.4214087 0 0 1 -2.39927,2.4213 2.4214182,2.4214087 0 0 1 -2.44316,-2.37702 2.4214182,2.4214087 0 0 1 2.35459,-2.46478 2.4214182,2.4214087 0 0 1 2.48622,2.33194" />
    <rect
       style="fill:#000000;stroke-width:0.128131"
       id="rect835-7-3-7-2"
       width="0.2"
       height="240"
       x="91.475266"
       y="27.852604" />
    <rect
       style="fill:#000000;stroke-width:0.279785"
       id="rect857-9-5-4"
       width="45"
       height="0.2"
       x="80.474792"
       y="32.852612" />
    <rect
       style="fill:#000000;stroke-width:0.167157;stroke-miterlimit:4;stroke-dasharray:none"
       id="rect857-1-0-6-77"
       width="16.036221"
       height="0.2"
       x="81.003952"
       y="262.85254" />
    <circle
       style="opacity:0.8;fill:none;stroke:#000000;stroke-width:0.157156;stroke-miterlimit:4;stroke-dasharray:none;stroke-opacity:1"
       id="path881-8-9-5"
       sodipodi:type="arc"
       sodipodi:cx="91.575272"
       sodipodi:cy="32.95261"
       sodipodi:rx="2.4214182"
       sodipodi:ry="2.4214087"
       sodipodi:start="0"
       sodipodi:end="6.2466047"
       sodipodi:arc-type="arc"
       sodipodi:open="true"
       d="m 93.99669,32.95261 a 2.4214182,2.4214087 0 0 1 -2.399274,2.421307 2.4214182,2.4214087 0 0 1 -2.443158,-2.377021 2.4214182,2.4214087 0 0 1 2.354589,-2.464783 2.4214182,2.4214087 0 0 1 2.486223,2.33194" />
    <circle
       style="opacity:0.8;fill:none;stroke:#000000;stroke-width:0.157156;stroke-miterlimit:4;stroke-dasharray:none;stroke-opacity:1"
       id="path881-2-8-8-4"
       sodipodi:type="arc"
       sodipodi:cx="115.57535"
       sodipodi:cy="32.95261"
       sodipodi:rx="2.4214182"
       sodipodi:ry="2.4214087"
       sodipodi:start="0"
       sodipodi:end="6.2466047"
       sodipodi:arc-type="arc"
       sodipodi:open="true"
       d="m 117.99677,32.95261 a 2.4214182,2.4214087 0 0 1 -2.39928,2.421307 2.4214182,2.4214087 0 0 1 -2.44316,-2.377021 2.4214182,2.4214087 0 0 1 2.35459,-2.464783 2.4214182,2.4214087 0 0 1 2.48623,2.33194" />
    <circle
       style="opacity:0.8;fill:none;stroke:#000000;stroke-width:0.157156;stroke-miterlimit:4;stroke-dasharray:none;stroke-opacity:1"
       id="path881-7-5-7-8"
       sodipodi:type="arc"
       sodipodi:cx="91.575272"
       sodipodi:cy="262.95255"
       sodipodi:rx="2.4214182"
       sodipodi:ry="2.4214087"
       sodipodi:start="0"
       sodipodi:end="6.2466047"
       sodipodi:arc-type="arc"
       sodipodi:open="true"
       d="m 93.99669,262.95255 a 2.4214182,2.4214087 0 0 1 -2.399274,2.4213 2.4214182,2.4214087 0 0 1 -2.443158,-2.37702 2.4214182,2.4214087 0 0 1 2.354589,-2.46478 2.4214182,2.4214087 0 0 1 2.486223,2.33194" />
    <circle
       style="opacity:0.8;fill:none;stroke:#000000;stroke-width:0.157156;stroke-miterlimit:4;stroke-dasharray:none;stroke-opacity:1"
       id="path881-7-2-0-2-1"
       sodipodi:type="arc"
       sodipodi:cx="115.57535"
       sodipodi:cy="262.95255"
       sodipodi:rx="2.4214182"
       sodipodi:ry="2.4214087"
       sodipodi:start="0"
       sodipodi:end="6.2466047"
       sodipodi:arc-type="arc"
       sodipodi:open="true"
       d="m 117.99677,262.95255 a 2.4214182,2.4214087 0 0 1 -2.39928,2.4213 2.4214182,2.4214087 0 0 1 -2.44316,-2.37702 2.4214182,2.4214087 0 0 1 2.35459,-2.46478 2.4214182,2.4214087 0 0 1 2.48623,2.33194" />
    <rect
       style="fill:#000000;stroke-width:0.128132"
       id="rect835-9-8-2"
       width="0.2"
       height="240"
       x="115.47534"
       y="27.852604" />
    <rect
       style="fill:#000000;stroke-width:0.167157;stroke-miterlimit:4;stroke-dasharray:none"
       id="rect857-1-0-6-7-8"
       width="16.036221"
       height="0.2"
       x="110.33862"
       y="262.8526" />
    <rect
       style="fill:none;stroke:#000000;stroke-width:0.201872;stroke-miterlimit:4;stroke-dasharray:1.21123, 0.201872;stroke-dashoffset:0"
       id="rect892-4-9"
       width="59.798126"
       height="19.798128"
       x="73.525772"
       y="13.153538"
       ry="0" />
    <rect
       style="fill:none;stroke:#000000;stroke-width:0.201872;stroke-miterlimit:4;stroke-dasharray:1.21123, 0.201872;stroke-dashoffset:0"
       id="rect892-5-1-3"
       width="59.798126"
       height="19.798128"
       x="73.525772"
       y="262.95352"
       ry="0" />
    <g
       id="g1303"
       transform="translate(-64.617613,3.5733181)">
      <rect
         style="fill:#000000;stroke-width:0.0935739"
         id="rect835-08"
         width="0.2"
         height="128"
         x="168.82561"
         y="83.279282" />
      <rect
         style="fill:#000000;stroke-width:0.0935739"
         id="rect835-7-5"
         width="0.2"
         height="128"
         x="162.82561"
         y="83.279282" />
      <rect
         style="fill:#000000;stroke-width:0.166832"
         id="rect857-0"
         width="16"
         height="0.2"
         x="157.82561"
         y="88.279282" />
      <rect
         style="fill:#000000;stroke-width:0.166833"
         id="rect857-1-6"
         width="16"
         height="0.2"
         x="157.82561"
         y="206.27927" />
      <circle
         style="opacity:0.8;fill:none;stroke:#000000;stroke-width:0.157156;stroke-miterlimit:4;stroke-dasharray:none;stroke-opacity:1"
         id="path881-4"
         sodipodi:type="arc"
         sodipodi:cx="162.92561"
         sodipodi:cy="88.379288"
         sodipodi:rx="2.4214182"
         sodipodi:ry="2.4214087"
         sodipodi:start="0"
         sodipodi:end="6.2466047"
         sodipodi:arc-type="arc"
         sodipodi:open="true"
         d="m 165.34703,88.379288 a 2.4214182,2.4214087 0 0 1 -2.39927,2.421307 2.4214182,2.4214087 0 0 1 -2.44316,-2.377021 2.4214182,2.4214087 0 0 1 2.35459,-2.464784 2.4214182,2.4214087 0 0 1 2.48622,2.331941" />
      <circle
         style="opacity:0.8;fill:none;stroke:#000000;stroke-width:0.157156;stroke-miterlimit:4;stroke-dasharray:none;stroke-opacity:1"
         id="path881-2-6"
         sodipodi:type="arc"
         sodipodi:cx="168.92561"
         sodipodi:cy="88.379288"
         sodipodi:rx="2.4214182"
         sodipodi:ry="2.4214087"
         sodipodi:start="0"
         sodipodi:end="6.2466047"
         sodipodi:arc-type="arc"
         sodipodi:open="true"
         d="m 171.34703,88.379288 a 2.4214182,2.4214087 0 0 1 -2.39927,2.421307 2.4214182,2.4214087 0 0 1 -2.44316,-2.377021 2.4214182,2.4214087 0 0 1 2.35459,-2.464784 2.4214182,2.4214087 0 0 1 2.48622,2.331941" />
      <circle
         style="opacity:0.8;fill:none;stroke:#000000;stroke-width:0.157156;stroke-miterlimit:4;stroke-dasharray:none;stroke-opacity:1"
         id="path881-7-25"
         sodipodi:type="arc"
         sodipodi:cx="162.92561"
         sodipodi:cy="206.37927"
         sodipodi:rx="2.4214182"
         sodipodi:ry="2.4214087"
         sodipodi:start="0"
         sodipodi:end="6.2466047"
         sodipodi:arc-type="arc"
         sodipodi:open="true"
         d="m 165.34703,206.37927 a 2.4214182,2.4214087 0 0 1 -2.39927,2.42131 2.4214182,2.4214087 0 0 1 -2.44316,-2.37702 2.4214182,2.4214087 0 0 1 2.35459,-2.46478 2.4214182,2.4214087 0 0 1 2.48622,2.33194" />
      <circle
         style="opacity:0.8;fill:none;stroke:#000000;stroke-width:0.157156;stroke-miterlimit:4;stroke-dasharray:none;stroke-opacity:1"
         id="path881-7-2-86"
         sodipodi:type="arc"
         sodipodi:cx="168.92561"
         sodipodi:cy="206.37927"
         sodipodi:rx="2.4214182"
         sodipodi:ry="2.4214087"
         sodipodi:start="0"
         sodipodi:end="6.2466047"
         sodipodi:arc-type="arc"
         sodipodi:open="true"
         d="m 171.34703,206.37927 a 2.4214182,2.4214087 0 0 1 -2.39927,2.42131 2.4214182,2.4214087 0 0 1 -2.44316,-2.37702 2.4214182,2.4214087 0 0 1 2.35459,-2.46478 2.4214182,2.4214087 0 0 1 2.48622,2.33194" />
    </g>
    <g
       id="g1120">
      <g
         id="g1293"
         transform="translate(4.9556116,2.8525998)">
        <rect
           style="fill:#000000;stroke-width:0.0935739"
           id="rect835"
           width="0.2"
           height="128"
           x="39.454426"
           y="84" />
        <rect
           style="fill:#000000;stroke-width:0.0935739"
           id="rect835-7"
           width="0.2"
           height="128"
           x="33.454426"
           y="84" />
        <rect
           style="fill:#000000;stroke-width:0.166832"
           id="rect857"
           width="16"
           height="0.2"
           x="28.454428"
           y="89" />
        <rect
           style="fill:#000000;stroke-width:0.166833"
           id="rect857-1"
           width="16"
           height="0.2"
           x="28.454428"
           y="207" />
        <circle
           style="opacity:0.8;fill:none;stroke:#000000;stroke-width:0.157156;stroke-miterlimit:4;stroke-dasharray:none;stroke-opacity:1"
           id="path881"
           sodipodi:type="arc"
           sodipodi:cx="33.554432"
           sodipodi:cy="89.100006"
           sodipodi:rx="2.4214182"
           sodipodi:ry="2.4214087"
           sodipodi:start="0"
           sodipodi:end="6.2466047"
           sodipodi:arc-type="arc"
           sodipodi:open="true"
           d="m 35.97585,89.100006 a 2.4214182,2.4214087 0 0 1 -2.399274,2.421308 2.4214182,2.4214087 0 0 1 -2.443157,-2.377022 2.4214182,2.4214087 0 0 1 2.354589,-2.464783 2.4214182,2.4214087 0 0 1 2.486222,2.33194" />
        <circle
           style="opacity:0.8;fill:none;stroke:#000000;stroke-width:0.157156;stroke-miterlimit:4;stroke-dasharray:none;stroke-opacity:1"
           id="path881-2"
           sodipodi:type="arc"
           sodipodi:cx="39.554432"
           sodipodi:cy="89.100006"
           sodipodi:rx="2.4214182"
           sodipodi:ry="2.4214087"
           sodipodi:start="0"
           sodipodi:end="6.2466047"
           sodipodi:arc-type="arc"
           sodipodi:open="true"
           d="m 41.97585,89.100006 a 2.4214182,2.4214087 0 0 1 -2.399274,2.421308 2.4214182,2.4214087 0 0 1 -2.443157,-2.377022 2.4214182,2.4214087 0 0 1 2.354589,-2.464783 2.4214182,2.4214087 0 0 1 2.486222,2.33194" />
        <circle
           style="opacity:0.8;fill:none;stroke:#000000;stroke-width:0.157156;stroke-miterlimit:4;stroke-dasharray:none;stroke-opacity:1"
           id="path881-7"
           sodipodi:type="arc"
           sodipodi:cx="33.554432"
           sodipodi:cy="207.10001"
           sodipodi:rx="2.4214182"
           sodipodi:ry="2.4214087"
           sodipodi:start="0"
           sodipodi:end="6.2466047"
           sodipodi:arc-type="arc"
           sodipodi:open="true"
           d="m 35.97585,207.10001 a 2.4214182,2.4214087 0 0 1 -2.399274,2.4213 2.4214182,2.4214087 0 0 1 -2.443157,-2.37702 2.4214182,2.4214087 0 0 1 2.354589,-2.46478 2.4214182,2.4214087 0 0 1 2.486222,2.33194" />
        <circle
           style="opacity:0.8;fill:none;stroke:#000000;stroke-width:0.157156;stroke-miterlimit:4;stroke-dasharray:none;stroke-opacity:1"
           id="path881-7-2"
           sodipodi:type="arc"
           sodipodi:cx="39.554432"
           sodipodi:cy="207.10001"
           sodipodi:rx="2.4214182"
           sodipodi:ry="2.4214087"
           sodipodi:start="0"
           sodipodi:end="6.2466047"
           sodipodi:arc-type="arc"
           sodipodi:open="true"
           d="m 41.97585,207.10001 a 2.4214182,2.4214087 0 0 1 -2.399274,2.4213 2.4214182,2.4214087 0 0 1 -2.443157,-2.37702 2.4214182,2.4214087 0 0 1 2.354589,-2.46478 2.4214182,2.4214087 0 0 1 2.486222,2.33194" />
      </g>
      <rect
         style="fill:#000000;stroke-width:0.128131"
         id="rect835-7-3"
         width="0.2"
         height="240"
         x="26.026709"
         y="27.8526" />
      <circle
         style="opacity:0.8;fill:none;stroke:#000000;stroke-width:0.157156;stroke-miterlimit:4;stroke-dasharray:none;stroke-opacity:1"
         id="path881-8"
         sodipodi:type="arc"
         sodipodi:cx="26.126715"
         sodipodi:cy="32.952606"
         sodipodi:rx="2.4214182"
         sodipodi:ry="2.4214087"
         sodipodi:start="0"
         sodipodi:end="6.2466047"
         sodipodi:arc-type="arc"
         sodipodi:open="true"
         d="m 28.548133,32.952606 a 2.4214182,2.4214087 0 0 1 -2.399274,2.421308 2.4214182,2.4214087 0 0 1 -2.443157,-2.377022 2.4214182,2.4214087 0 0 1 2.354588,-2.464783 2.4214182,2.4214087 0 0 1 2.486223,2.33194" />
      <circle
         style="opacity:0.8;fill:none;stroke:#000000;stroke-width:0.157156;stroke-miterlimit:4;stroke-dasharray:none;stroke-opacity:1"
         id="path881-2-8"
         sodipodi:type="arc"
         sodipodi:cx="61.126709"
         sodipodi:cy="32.952606"
         sodipodi:rx="2.4214182"
         sodipodi:ry="2.4214087"
         sodipodi:start="0"
         sodipodi:end="6.2466047"
         sodipodi:arc-type="arc"
         sodipodi:open="true"
         d="m 63.548127,32.952606 a 2.4214182,2.4214087 0 0 1 -2.399274,2.421308 2.4214182,2.4214087 0 0 1 -2.443157,-2.377022 2.4214182,2.4214087 0 0 1 2.354589,-2.464783 2.4214182,2.4214087 0 0 1 2.486222,2.33194" />
      <circle
         style="opacity:0.8;fill:none;stroke:#000000;stroke-width:0.157156;stroke-miterlimit:4;stroke-dasharray:none;stroke-opacity:1"
         id="path881-7-5"
         sodipodi:type="arc"
         sodipodi:cx="26.126715"
         sodipodi:cy="262.95255"
         sodipodi:rx="2.4214182"
         sodipodi:ry="2.4214087"
         sodipodi:start="0"
         sodipodi:end="6.2466047"
         sodipodi:arc-type="arc"
         sodipodi:open="true"
         d="m 28.548133,262.95255 a 2.4214182,2.4214087 0 0 1 -2.399274,2.4213 2.4214182,2.4214087 0 0 1 -2.443157,-2.37702 2.4214182,2.4214087 0 0 1 2.354588,-2.46478 2.4214182,2.4214087 0 0 1 2.486223,2.33194" />
      <circle
         style="opacity:0.8;fill:none;stroke:#000000;stroke-width:0.157156;stroke-miterlimit:4;stroke-dasharray:none;stroke-opacity:1"
         id="path881-7-2-0"
         sodipodi:type="arc"
         sodipodi:cx="61.126709"
         sodipodi:cy="262.95255"
         sodipodi:rx="2.4214182"
         sodipodi:ry="2.4214087"
         sodipodi:start="0"
         sodipodi:end="6.2466047"
         sodipodi:arc-type="arc"
         sodipodi:open="true"
         d="m 63.548127,262.95255 a 2.4214182,2.4214087 0 0 1 -2.399274,2.4213 2.4214182,2.4214087 0 0 1 -2.443157,-2.37702 2.4214182,2.4214087 0 0 1 2.354589,-2.46478 2.4214182,2.4214087 0 0 1 2.486222,2.33194" />
      <rect
         style="fill:#000000;stroke-width:0.128132"
         id="rect835-9"
         width="0.2"
         height="240"
         x="61.026711"
         y="27.8526" />
      <rect
         style="fill:none;stroke:#000000;stroke-width:0.201872;stroke-miterlimit:4;stroke-dasharray:1.21123, 0.201872;stroke-dashoffset:0"
         id="rect892"
         width="59.798126"
         height="19.798128"
         x="13.727646"
         y="13.153536"
         ry="0" />
      <rect
         style="fill:none;stroke:#000000;stroke-width:0.201872;stroke-miterlimit:4;stroke-dasharray:1.21123, 0.201872;stroke-dashoffset:0"
         id="rect892-5"
         width="59.798126"
         height="19.798128"
         x="13.727646"
         y="262.95352"
         ry="0" />
      <text
         xml:space="preserve"
         style="font-style:normal;font-weight:normal;font-size:10.5833px;line-height:1.25;font-family:sans-serif;letter-spacing:0px;word-spacing:0px;fill:#000000;fill-opacity:1;stroke:none;stroke-width:0.264583"
         x="35.435242"
         y="25.202494"
         id="text1380"><tspan
           sodipodi:role="line"
           x="35.435242"
           y="25.202494"
           style="font-style:normal;font-variant:normal;font-weight:normal;font-stretch:normal;font-size:10.5833px;font-family:'3270Medium Nerd Font';-inkscape-font-specification:'3270Medium Nerd Font, Normal';font-variant-ligatures:normal;font-variant-caps:normal;font-variant-numeric:normal;font-variant-east-asian:normal;stroke-width:0.264583"
           id="tspan1386">Top</tspan></text>
    </g>
    <text
       xml:space="preserve"
       style="font-style:normal;font-weight:normal;font-size:10.5833px;line-height:1.25;font-family:sans-serif;letter-spacing:0px;word-spacing:0px;fill:#000000;fill-opacity:1;stroke:none;stroke-width:0.264583"
       x="86.401619"
       y="25.202494"
       id="text1384"><tspan
         sodipodi:role="line"
         id="tspan1382"
         x="86.401619"
         y="25.202494"
         style="font-style:normal;font-variant:normal;font-weight:normal;font-stretch:normal;font-size:10.5833px;font-family:'3270Medium Nerd Font';-inkscape-font-specification:'3270Medium Nerd Font, Normal';font-variant-ligatures:normal;font-variant-caps:normal;font-variant-numeric:normal;font-variant-east-asian:normal;stroke-width:0.264583">Bottom</tspan></text>
    <text
       xml:space="preserve"
       style="font-style:normal;font-weight:normal;font-size:10.5833px;line-height:1.25;font-family:sans-serif;letter-spacing:0px;word-spacing:0px;fill:#000000;fill-opacity:1;stroke:none;stroke-width:0.264583"
       x="145.87695"
       y="25.528053"
       id="text1392"><tspan
         sodipodi:role="line"
         x="145.87695"
         y="25.528053"
         style="font-style:normal;font-variant:normal;font-weight:normal;font-stretch:normal;font-size:10.5833px;font-family:'3270Medium Nerd Font';-inkscape-font-specification:'3270Medium Nerd Font, Normal';font-variant-ligatures:normal;font-variant-caps:normal;font-variant-numeric:normal;font-variant-east-asian:normal;stroke-width:0.264583"
         id="tspan1394">Inside</tspan></text>
    <g
       id="g1099"
       transform="translate(-33.716553,49.822637)">
      <rect
         style="fill:#000000;stroke-width:0.0320328"
         id="rect835-0-0-5"
         width="0.2"
         height="15"
         x="84.031685"
         y="178.66751" />
      <rect
         style="fill:#000000;stroke-width:0.0320327"
         id="rect835-7-2-5-6"
         width="0.2"
         height="15"
         x="70.710915"
         y="178.66751" />
      <circle
         style="opacity:0.8;fill:none;stroke:#000000;stroke-width:0.157156;stroke-miterlimit:4;stroke-dasharray:none;stroke-opacity:1"
         id="path881-1-4-9"
         sodipodi:type="arc"
         sodipodi:cx="70.810883"
         sodipodi:cy="183.66751"
         sodipodi:rx="2.4214182"
         sodipodi:ry="2.4214087"
         sodipodi:start="0"
         sodipodi:end="6.2466047"
         sodipodi:arc-type="arc"
         sodipodi:open="true"
         d="m 73.232301,183.66751 a 2.4214182,2.4214087 0 0 1 -2.399275,2.42131 2.4214182,2.4214087 0 0 1 -2.443157,-2.37702 2.4214182,2.4214087 0 0 1 2.354589,-2.46479 2.4214182,2.4214087 0 0 1 2.486223,2.33194" />
      <circle
         style="opacity:0.8;fill:none;stroke:#000000;stroke-width:0.157156;stroke-miterlimit:4;stroke-dasharray:none;stroke-opacity:1"
         id="path881-2-1-6-3"
         sodipodi:type="arc"
         sodipodi:cx="84.010895"
         sodipodi:cy="183.66751"
         sodipodi:rx="2.4214182"
         sodipodi:ry="2.4214087"
         sodipodi:start="0"
         sodipodi:end="6.2466047"
         sodipodi:arc-type="arc"
         sodipodi:open="true"
         d="m 86.432313,183.66751 a 2.4214182,2.4214087 0 0 1 -2.399274,2.42131 2.4214182,2.4214087 0 0 1 -2.443157,-2.37702 2.4214182,2.4214087 0 0 1 2.354588,-2.46479 2.4214182,2.4214087 0 0 1 2.486223,2.33194" />
      <circle
         style="opacity:0.8;fill:none;stroke:#000000;stroke-width:0.157156;stroke-miterlimit:4;stroke-dasharray:none;stroke-opacity:1"
         id="path881-7-0-9-7"
         sodipodi:type="arc"
         sodipodi:cx="70.811012"
         sodipodi:cy="189.04158"
         sodipodi:rx="2.4214182"
         sodipodi:ry="2.4214087"
         sodipodi:start="0"
         sodipodi:end="6.2466047"
         sodipodi:arc-type="arc"
         sodipodi:open="true"
         d="m 73.23243,189.04158 a 2.4214182,2.4214087 0 0 1 -2.399274,2.42131 2.4214182,2.4214087 0 0 1 -2.443157,-2.37702 2.4214182,2.4214087 0 0 1 2.354589,-2.46479 2.4214182,2.4214087 0 0 1 2.486223,2.33194" />
      <circle
         style="opacity:0.8;fill:none;stroke:#000000;stroke-width:0.157156;stroke-miterlimit:4;stroke-dasharray:none;stroke-opacity:1"
         id="path881-7-2-8-2-4"
         sodipodi:type="arc"
         sodipodi:cx="84.131859"
         sodipodi:cy="189.04158"
         sodipodi:rx="2.4214182"
         sodipodi:ry="2.4214087"
         sodipodi:start="0"
         sodipodi:end="6.2466047"
         sodipodi:arc-type="arc"
         sodipodi:open="true"
         d="m 86.553277,189.04158 a 2.4214182,2.4214087 0 0 1 -2.399274,2.42131 2.4214182,2.4214087 0 0 1 -2.443157,-2.37702 2.4214182,2.4214087 0 0 1 2.354588,-2.46479 2.4214182,2.4214087 0 0 1 2.486223,2.33194" />
      <rect
         style="fill:#000000;stroke-width:0.195628"
         id="rect857-10-9-5"
         width="22"
         height="0.2"
         x="66.547363"
         y="183.37895" />
      <rect
         style="fill:#000000;stroke-width:0.195628"
         id="rect857-10-9-5-2"
         width="22"
         height="0.2"
         x="66.13916"
         y="188.75302" />
    </g>
  </g>
</svg>
