<?xml version="1.0" encoding="UTF-8" standalone="no"?>
<svg
   xmlns:dc="http://purl.org/dc/elements/1.1/"
   xmlns:cc="http://creativecommons.org/ns#"
   xmlns:rdf="http://www.w3.org/1999/02/22-rdf-syntax-ns#"
   xmlns:svg="http://www.w3.org/2000/svg"
   xmlns="http://www.w3.org/2000/svg"
   xmlns:sodipodi="http://sodipodi.sourceforge.net/DTD/sodipodi-0.dtd"
   xmlns:inkscape="http://www.inkscape.org/namespaces/inkscape"
   width="210mm"
   height="297mm"
   viewBox="0 0 210 297"
   version="1.1"
   id="svg8"
   inkscape:version="1.0.2 (e86c870879, 2021-01-15, custom)"
   sodipodi:docname="mask135.svg">
  <defs
     id="defs2" />
  <sodipodi:namedview
     id="base"
     pagecolor="#ffffff"
     bordercolor="#666666"
     borderopacity="1.0"
     inkscape:pageopacity="0.0"
     inkscape:pageshadow="2"
     inkscape:zoom="0.74020337"
     inkscape:cx="183.1097"
     inkscape:cy="539.37801"
     inkscape:document-units="mm"
     inkscape:current-layer="layer1"
     inkscape:document-rotation="0"
     showgrid="false"
     inkscape:window-width="1920"
     inkscape:window-height="1136"
     inkscape:window-x="0"
     inkscape:window-y="27"
     inkscape:window-maximized="1" />
  <metadata
     id="metadata5">
    <rdf:RDF>
      <cc:Work
         rdf:about="">
        <dc:format>image/svg+xml</dc:format>
        <dc:type
           rdf:resource="http://purl.org/dc/dcmitype/StillImage" />
        <dc:title />
      </cc:Work>
    </rdf:RDF>
  </metadata>
  <g
     inkscape:label="Livello 1"
     inkscape:groupmode="layer"
     id="layer1">
    <rect
       style="fill:#000000;stroke-width:0.128131"
       id="rect835-7-3"
       width="0.2"
       height="240"
       x="70.000008"
       y="28.722197" />
    <rect
       style="fill:#000000;stroke-width:0.373047"
       id="rect857-9"
       width="80"
       height="0.2"
       x="65"
       y="33.722206" />
    <rect
       style="fill:#000000;stroke-width:0.373352;stroke-miterlimit:4;stroke-dasharray:none"
       id="rect857-1-0"
       width="80"
       height="0.2"
       x="65"
       y="263.72217" />
    <circle
       style="opacity:0.8;fill:none;stroke:#000000;stroke-width:0.157156;stroke-miterlimit:4;stroke-dasharray:none;stroke-opacity:1"
       id="path881-8"
       sodipodi:type="arc"
       sodipodi:cx="70.100014"
       sodipodi:cy="33.822205"
       sodipodi:rx="2.4214182"
       sodipodi:ry="2.4214087"
       sodipodi:start="0"
       sodipodi:end="6.2466047"
       sodipodi:arc-type="arc"
       sodipodi:open="true"
       d="m 72.521432,33.822205 a 2.4214182,2.4214087 0 0 1 -2.399274,2.421307 2.4214182,2.4214087 0 0 1 -2.443157,-2.377022 2.4214182,2.4214087 0 0 1 2.354588,-2.464783 2.4214182,2.4214087 0 0 1 2.486223,2.331941" />
    <circle
       style="opacity:0.8;fill:none;stroke:#000000;stroke-width:0.157156;stroke-miterlimit:4;stroke-dasharray:none;stroke-opacity:1"
       id="path881-2-8"
       sodipodi:type="arc"
       sodipodi:cx="105.10001"
       sodipodi:cy="33.822205"
       sodipodi:rx="2.4214182"
       sodipodi:ry="2.4214087"
       sodipodi:start="0"
       sodipodi:end="6.2466047"
       sodipodi:arc-type="arc"
       sodipodi:open="true"
       d="m 107.52143,33.822205 a 2.4214182,2.4214087 0 0 1 -2.39927,2.421307 2.4214182,2.4214087 0 0 1 -2.44316,-2.377022 2.4214182,2.4214087 0 0 1 2.35459,-2.464783 2.4214182,2.4214087 0 0 1 2.48622,2.331941" />
    <circle
       style="opacity:0.8;fill:none;stroke:#000000;stroke-width:0.157156;stroke-miterlimit:4;stroke-dasharray:none;stroke-opacity:1"
       id="path881-7-5"
       sodipodi:type="arc"
       sodipodi:cx="70.100014"
       sodipodi:cy="263.82217"
       sodipodi:rx="2.4214182"
       sodipodi:ry="2.4214087"
       sodipodi:start="0"
       sodipodi:end="6.2466047"
       sodipodi:arc-type="arc"
       sodipodi:open="true"
       d="m 72.521432,263.82217 a 2.4214182,2.4214087 0 0 1 -2.399274,2.42131 2.4214182,2.4214087 0 0 1 -2.443157,-2.37702 2.4214182,2.4214087 0 0 1 2.354588,-2.46478 2.4214182,2.4214087 0 0 1 2.486223,2.33194" />
    <circle
       style="opacity:0.8;fill:none;stroke:#000000;stroke-width:0.157156;stroke-miterlimit:4;stroke-dasharray:none;stroke-opacity:1"
       id="path881-7-2-0"
       sodipodi:type="arc"
       sodipodi:cx="105.10001"
       sodipodi:cy="263.82217"
       sodipodi:rx="2.4214182"
       sodipodi:ry="2.4214087"
       sodipodi:start="0"
       sodipodi:end="6.2466047"
       sodipodi:arc-type="arc"
       sodipodi:open="true"
       d="m 107.52143,263.82217 a 2.4214182,2.4214087 0 0 1 -2.39927,2.42131 2.4214182,2.4214087 0 0 1 -2.44316,-2.37702 2.4214182,2.4214087 0 0 1 2.35459,-2.46478 2.4214182,2.4214087 0 0 1 2.48622,2.33194" />
    <rect
       style="fill:#000000;stroke-width:0.128132"
       id="rect835-9"
       width="0.2"
       height="240"
       x="105.00001"
       y="28.722197" />
    <rect
       style="fill:#000000;stroke-width:0.128131"
       id="rect835-7-3-9"
       width="0.2"
       height="240"
       x="139.99982"
       y="28.722197" />
    <circle
       style="opacity:0.8;fill:none;stroke:#000000;stroke-width:0.157156;stroke-miterlimit:4;stroke-dasharray:none;stroke-opacity:1"
       id="path881-8-0"
       sodipodi:type="arc"
       sodipodi:cx="140.09982"
       sodipodi:cy="33.822506"
       sodipodi:rx="2.4214182"
       sodipodi:ry="2.4214087"
       sodipodi:start="0"
       sodipodi:end="6.2466047"
       sodipodi:arc-type="arc"
       sodipodi:open="true"
       d="m 142.52124,33.822506 a 2.4214182,2.4214087 0 0 1 -2.39927,2.421307 2.4214182,2.4214087 0 0 1 -2.44316,-2.377021 2.4214182,2.4214087 0 0 1 2.35459,-2.464783 2.4214182,2.4214087 0 0 1 2.48622,2.33194" />
    <circle
       style="opacity:0.8;fill:none;stroke:#000000;stroke-width:0.157156;stroke-miterlimit:4;stroke-dasharray:none;stroke-opacity:1"
       id="path881-7-5-8"
       sodipodi:type="arc"
       sodipodi:cx="140.09982"
       sodipodi:cy="263.82217"
       sodipodi:rx="2.4214182"
       sodipodi:ry="2.4214087"
       sodipodi:start="0"
       sodipodi:end="6.2466047"
       sodipodi:arc-type="arc"
       sodipodi:open="true"
       d="m 142.52124,263.82217 a 2.4214182,2.4214087 0 0 1 -2.39927,2.42131 2.4214182,2.4214087 0 0 1 -2.44316,-2.37702 2.4214182,2.4214087 0 0 1 2.35459,-2.46478 2.4214182,2.4214087 0 0 1 2.48622,2.33194" />
  </g>
</svg>
