<?xml version="1.0" encoding="UTF-8" standalone="no"?>
<svg
   xmlns:dc="http://purl.org/dc/elements/1.1/"
   xmlns:cc="http://creativecommons.org/ns#"
   xmlns:rdf="http://www.w3.org/1999/02/22-rdf-syntax-ns#"
   xmlns:svg="http://www.w3.org/2000/svg"
   xmlns="http://www.w3.org/2000/svg"
   xmlns:sodipodi="http://sodipodi.sourceforge.net/DTD/sodipodi-0.dtd"
   xmlns:inkscape="http://www.inkscape.org/namespaces/inkscape"
   width="400"
   height="148"
   viewBox="0 0 105.83333 39.158334"
   version="1.1"
   id="svg8"
   inkscape:version="1.0.2 (e86c870879, 2021-01-15, custom)"
   sodipodi:docname="mirino.svg">
  <defs
     id="defs2">
    <inkscape:path-effect
       effect="offset"
       id="path-effect1229"
       is_visible="true"
       lpeversion="1"
       linejoin_type="extrp_arc"
       unit="mm"
       offset="2.4"
       miter_limit="4"
       attempt_force_join="true"
       update_on_knot_move="true" />
    <inkscape:path-effect
       effect="fillet_chamfer"
       id="path-effect1162"
       is_visible="true"
       lpeversion="1"
       satellites_param="F,0,0,1,0,1.0583333,0,1 @ F,0,0,1,0,1.0583333,0,1 @ F,0,0,1,0,1.0583333,0,1 @ F,0,0,1,0,1.0583333,0,1"
       unit="px"
       method="auto"
       mode="F"
       radius="4"
       chamfer_steps="1"
       flexible="false"
       use_knot_distance="true"
       apply_no_radius="true"
       apply_with_radius="true"
       only_selected="false"
       hide_knots="false" />
    <inkscape:path-effect
       effect="fillet_chamfer"
       id="path-effect1062"
       is_visible="true"
       lpeversion="1"
       satellites_param="F,0,0,1,0,1.0583333,0,1 @ F,0,0,1,0,1.0583333,0,1 @ F,0,0,1,0,1.0583333,0,1 @ F,0,0,1,0,1.0583333,0,1"
       unit="px"
       method="auto"
       mode="F"
       radius="4"
       chamfer_steps="1"
       flexible="false"
       use_knot_distance="true"
       apply_no_radius="true"
       apply_with_radius="true"
       only_selected="false"
       hide_knots="false" />
    <inkscape:path-effect
       effect="fillet_chamfer"
       id="path-effect910"
       is_visible="true"
       lpeversion="1"
       satellites_param="F,0,0,1,0,1.3229167,0,1 @ F,0,0,1,0,1.3229167,0,1 @ F,0,0,1,0,1.3229167,0,1 @ F,0,0,1,0,1.3229167,0,1"
       unit="px"
       method="auto"
       mode="F"
       radius="5"
       chamfer_steps="1"
       flexible="false"
       use_knot_distance="true"
       apply_no_radius="true"
       apply_with_radius="true"
       only_selected="false"
       hide_knots="false" />
    <filter
       style="color-interpolation-filters:sRGB"
       x="-0.25"
       width="1.5"
       y="-0.25"
       height="1.5"
       inkscape:menu="Non-Realistic 3D Shaders"
       inkscape:menu-tooltip="Satiny glass effect"
       inkscape:label="Frosted Glass"
       id="filter1039">
      <feGaussianBlur
         in="SourceGraphic"
         result="result8"
         stdDeviation="5"
         id="feGaussianBlur1019" />
      <feComposite
         result="result18"
         operator="xor"
         in2="result8"
         in="SourceGraphic"
         id="feComposite1021" />
      <feComposite
         in2="result18"
         result="result16"
         operator="arithmetic"
         k2="0.5"
         k1="1"
         in="result8"
         id="feComposite1023" />
      <feComposite
         in="result16"
         operator="atop"
         result="result6"
         in2="result8"
         id="feComposite1025" />
      <feOffset
         in="result6"
         result="result17"
         id="feOffset1027" />
      <feDisplacementMap
         result="result4"
         scale="100"
         yChannelSelector="A"
         xChannelSelector="A"
         in="result17"
         in2="result16"
         id="feDisplacementMap1029" />
      <feComposite
         k3="1"
         in="result17"
         operator="arithmetic"
         result="result2"
         in2="result4"
         id="feComposite1031" />
      <feComposite
         operator="out"
         in="result2"
         result="fbSourceGraphic"
         in2="result17"
         id="feComposite1033" />
      <feComposite
         result="result14"
         operator="over"
         in2="fbSourceGraphic"
         in="fbSourceGraphic"
         id="feComposite1035" />
      <feComposite
         in="result14"
         operator="in"
         in2="SourceGraphic"
         result="result15"
         id="feComposite1037" />
    </filter>
    <filter
       inkscape:label="Inset"
       inkscape:menu="Shadows and Glows"
       inkscape:menu-tooltip="Shadowy outer bevel"
       style="color-interpolation-filters:sRGB;"
       id="filter1139">
      <feMorphology
         result="result1"
         in="SourceAlpha"
         operator="dilate"
         radius="3.6"
         id="feMorphology1127" />
      <feGaussianBlur
         stdDeviation="3.6"
         in="result1"
         result="result0"
         id="feGaussianBlur1129" />
      <feDiffuseLighting
         surfaceScale="-5"
         id="feDiffuseLighting1133">
        <feDistantLight
           elevation="45"
           azimuth="225"
           id="feDistantLight1131" />
      </feDiffuseLighting>
      <feComposite
         in2="result0"
         operator="in"
         result="result91"
         id="feComposite1135" />
      <feComposite
         in="SourceGraphic"
         in2="result91"
         id="feComposite1137" />
    </filter>
    <filter
       style="color-interpolation-filters:sRGB"
       x="-0.25"
       width="1.5"
       y="-0.25"
       height="1.5"
       inkscape:menu="Non-Realistic 3D Shaders"
       inkscape:menu-tooltip="Satiny glass effect"
       inkscape:label="Frosted Glass"
       id="filter1185">
      <feGaussianBlur
         in="SourceGraphic"
         result="result8"
         stdDeviation="5"
         id="feGaussianBlur1165" />
      <feComposite
         result="result18"
         operator="xor"
         in2="result8"
         in="SourceGraphic"
         id="feComposite1167" />
      <feComposite
         in2="result18"
         result="result16"
         operator="arithmetic"
         k2="0.5"
         k1="1"
         in="result8"
         id="feComposite1169" />
      <feComposite
         in="result16"
         operator="atop"
         result="result6"
         in2="result8"
         id="feComposite1171" />
      <feOffset
         in="result6"
         result="result17"
         id="feOffset1173" />
      <feDisplacementMap
         result="result4"
         scale="100"
         yChannelSelector="A"
         xChannelSelector="A"
         in="result17"
         in2="result16"
         id="feDisplacementMap1175" />
      <feComposite
         k3="1"
         in="result17"
         operator="arithmetic"
         result="result2"
         in2="result4"
         id="feComposite1177" />
      <feComposite
         operator="out"
         in="result2"
         result="fbSourceGraphic"
         in2="result17"
         id="feComposite1179" />
      <feComposite
         result="result14"
         operator="over"
         in2="fbSourceGraphic"
         in="fbSourceGraphic"
         id="feComposite1181" />
      <feComposite
         in="result14"
         operator="in"
         in2="SourceGraphic"
         result="result15"
         id="feComposite1183" />
    </filter>
  </defs>
  <sodipodi:namedview
     id="base"
     pagecolor="#ffffff"
     bordercolor="#666666"
     borderopacity="1.0"
     inkscape:pageopacity="0.0"
     inkscape:pageshadow="2"
     inkscape:zoom="2.8284271"
     inkscape:cx="185.58807"
     inkscape:cy="119.68516"
     inkscape:document-units="mm"
     inkscape:current-layer="layer1"
     inkscape:document-rotation="0"
     showgrid="false"
     units="px"
     fit-margin-left="10"
     fit-margin-right="10"
     fit-margin-top="10"
     fit-margin-bottom="10"
     inkscape:window-width="1920"
     inkscape:window-height="1136"
     inkscape:window-x="0"
     inkscape:window-y="27"
     inkscape:window-maximized="1" />
  <metadata
     id="metadata5">
    <rdf:RDF>
      <cc:Work
         rdf:about="">
        <dc:format>image/svg+xml</dc:format>
        <dc:type
           rdf:resource="http://purl.org/dc/dcmitype/StillImage" />
        <dc:title />
      </cc:Work>
    </rdf:RDF>
  </metadata>
  <g
     inkscape:label="Livello 1"
     inkscape:groupmode="layer"
     id="layer1">
    <path
       id="path903"
       style="opacity:0.1;fill:#000000;fill-opacity:1;stroke-width:0.132291"
       d="M 87.23395,2.6458788 A 16.933332,16.933332 0 0 0 70.379167,19.579212 16.933332,16.933332 0 0 0 87.3125,36.512545 16.933332,16.933332 0 0 0 104.24583,19.579212 16.933332,16.933332 0 0 0 87.3125,2.6458788 a 16.933332,16.933332 0 0 0 -0.0785,0 z m 0.0227,10.5833332 a 6.3499999,6.3499999 0 0 1 0.0558,0 6.3499999,6.3499999 0 0 1 0.10904,5.16e-4 6.3499999,6.3499999 0 0 1 0.10904,0.0031 6.3499999,6.3499999 0 0 1 0.10852,0.0047 6.3499999,6.3499999 0 0 1 0.10903,0.0067 6.3499999,6.3499999 0 0 1 0.10853,0.0083 6.3499999,6.3499999 0 0 1 0.10852,0.01033 6.3499999,6.3499999 0 0 1 0.10852,0.01188 6.3499999,6.3499999 0 0 1 0.108,0.01395 6.3499999,6.3499999 0 0 1 0.10749,0.01602 6.3499999,6.3499999 0 0 1 0.108,0.01757 6.3499999,6.3499999 0 0 1 0.10697,0.01964 6.3499999,6.3499999 0 0 1 0.10697,0.02119 6.3499999,6.3499999 0 0 1 0.10646,0.02326 6.3499999,6.3499999 0 0 1 0.10593,0.02532 6.3499999,6.3499999 0 0 1 0.10594,0.02687 6.3499999,6.3499999 0 0 1 0.1049,0.02842 6.3499999,6.3499999 0 0 1 0.10491,0.03049 6.3499999,6.3499999 0 0 1 0.10386,0.03256 6.3499999,6.3499999 0 0 1 0.10387,0.03359 6.3499999,6.3499999 0 0 1 0.10284,0.03617 6.3499999,6.3499999 0 0 1 0.10232,0.03721 6.3499999,6.3499999 0 0 1 0.10129,0.03928 6.3499999,6.3499999 0 0 1 0.10128,0.04134 6.3499999,6.3499999 0 0 1 0.10025,0.04289 6.3499999,6.3499999 0 0 1 0.0992,0.04444 6.3499999,6.3499999 0 0 1 0.0987,0.04599 6.3499999,6.3499999 0 0 1 0.0982,0.04806 6.3499999,6.3499999 0 0 1 0.0971,0.04961 6.3499999,6.3499999 0 0 1 0.0961,0.05116 6.3499999,6.3499999 0 0 1 0.0951,0.05271 6.3499999,6.3499999 0 0 1 0.0946,0.05478 6.3499999,6.3499999 0 0 1 0.0935,0.05581 6.3499999,6.3499999 0 0 1 0.0925,0.05788 6.3499999,6.3499999 0 0 1 0.0915,0.05943 6.3499999,6.3499999 0 0 1 0.0904,0.06046 6.3499999,6.3499999 0 0 1 0.0894,0.06253 6.3499999,6.3499999 0 0 1 0.0884,0.06408 6.3499999,6.3499999 0 0 1 0.0868,0.06511 6.3499999,6.3499999 0 0 1 0.0863,0.06718 6.3499999,6.3499999 0 0 1 0.0847,0.06822 6.3499999,6.3499999 0 0 1 0.0837,0.06976 6.3499999,6.3499999 0 0 1 0.0827,0.07131 6.3499999,6.3499999 0 0 1 0.0811,0.07286 6.3499999,6.3499999 0 0 1 0.0801,0.0739 6.3499999,6.3499999 0 0 1 0.0785,0.07545 6.3499999,6.3499999 0 0 1 0.0775,0.07648 6.3499999,6.3499999 0 0 1 0.076,0.07803 6.3499999,6.3499999 0 0 1 0.0749,0.07958 6.3499999,6.3499999 0 0 1 0.0734,0.08062 6.3499999,6.3499999 0 0 1 0.0718,0.08165 6.3499999,6.3499999 0 0 1 0.0703,0.0832 6.3499999,6.3499999 0 0 1 0.0692,0.08423 6.3499999,6.3499999 0 0 1 0.0677,0.08527 6.3499999,6.3499999 0 0 1 0.0661,0.08682 6.3499999,6.3499999 0 0 1 0.0646,0.08785 6.3499999,6.3499999 0 0 1 0.0636,0.08888 6.3499999,6.3499999 0 0 1 0.0615,0.08992 6.3499999,6.3499999 0 0 1 0.0599,0.09095 6.3499999,6.3499999 0 0 1 0.0584,0.09147 6.3499999,6.3499999 0 0 1 0.0574,0.09302 6.3499999,6.3499999 0 0 1 0.0553,0.09405 6.3499999,6.3499999 0 0 1 0.0532,0.09509 6.3499999,6.3499999 0 0 1 0.0522,0.0956 6.3499999,6.3499999 0 0 1 0.0506,0.09664 6.3499999,6.3499999 0 0 1 0.0486,0.09767 6.3499999,6.3499999 0 0 1 0.047,0.09818 6.3499999,6.3499999 0 0 1 0.0455,0.09922 6.3499999,6.3499999 0 0 1 0.0434,0.09974 6.3499999,6.3499999 0 0 1 0.0424,0.100769 6.3499999,6.3499999 0 0 1 0.0398,0.101285 6.3499999,6.3499999 0 0 1 0.0388,0.101801 6.3499999,6.3499999 0 0 1 0.0367,0.10232 6.3499999,6.3499999 0 0 1 0.0351,0.103354 6.3499999,6.3499999 0 0 1 0.0331,0.10387 6.3499999,6.3499999 0 0 1 0.031,0.104386 6.3499999,6.3499999 0 0 1 0.03,0.104902 6.3499999,6.3499999 0 0 1 0.0274,0.105421 6.3499999,6.3499999 0 0 1 0.0264,0.105937 6.3499999,6.3499999 0 0 1 0.0238,0.106452 6.3499999,6.3499999 0 0 1 0.0227,0.106455 6.3499999,6.3499999 0 0 1 0.0202,0.106969 6.3499999,6.3499999 0 0 1 0.0186,0.107486 6.3499999,6.3499999 0 0 1 0.0171,0.107487 6.3499999,6.3499999 0 0 1 0.015,0.108006 6.3499999,6.3499999 0 0 1 0.0129,0.108519 6.3499999,6.3499999 0 0 1 0.0114,0.108521 6.3499999,6.3499999 0 0 1 0.009,0.108522 6.3499999,6.3499999 0 0 1 0.007,0.108519 6.3499999,6.3499999 0 0 1 0.006,0.109037 6.3499999,6.3499999 0 0 1 0.004,0.109038 6.3499999,6.3499999 0 0 1 0.002,0.108521 6.3499999,6.3499999 0 0 1 5.2e-4,0.05633 6.3499999,6.3499999 0 0 1 -10e-4,0.109038 6.3499999,6.3499999 0 0 1 -0.003,0.108519 6.3499999,6.3499999 0 0 1 -0.005,0.109037 6.3499999,6.3499999 0 0 1 -0.006,0.109037 6.3499999,6.3499999 0 0 1 -0.008,0.108522 6.3499999,6.3499999 0 0 1 -0.0103,0.108519 6.3499999,6.3499999 0 0 1 -0.0124,0.108521 6.3499999,6.3499999 0 0 1 -0.0139,0.108003 6.3499999,6.3499999 0 0 1 -0.016,0.107487 6.3499999,6.3499999 0 0 1 -0.0176,0.108006 6.3499999,6.3499999 0 0 1 -0.0196,0.106968 6.3499999,6.3499999 0 0 1 -0.0212,0.106971 6.3499999,6.3499999 0 0 1 -0.0233,0.106453 6.3499999,6.3499999 0 0 1 -0.0248,0.105936 6.3499999,6.3499999 0 0 1 -0.0269,0.105937 6.3499999,6.3499999 0 0 1 -0.0289,0.104904 6.3499999,6.3499999 0 0 1 -0.0305,0.104902 6.3499999,6.3499999 0 0 1 -0.032,0.10387 6.3499999,6.3499999 0 0 1 -0.0341,0.103355 6.3499999,6.3499999 0 0 1 -0.0357,0.103351 6.3499999,6.3499999 0 0 1 -0.0377,0.10232 6.3499999,6.3499999 0 0 1 -0.0393,0.101285 6.3499999,6.3499999 0 0 1 -0.0408,0.101288 6.3499999,6.3499999 0 0 1 -0.0429,0.10025 6.3499999,6.3499999 0 0 1 -0.0444,0.09922 6.3499999,6.3499999 0 0 1 -0.0465,0.0987 6.3499999,6.3499999 0 0 1 -0.0475,0.09818 6.3499999,6.3499999 0 0 1 -0.0496,0.09715 6.3499999,6.3499999 0 0 1 -0.0512,0.09612 6.3499999,6.3499999 0 0 1 -0.0532,0.09509 6.3499999,6.3499999 0 0 1 -0.0543,0.09457 6.3499999,6.3499999 0 0 1 -0.0563,0.09353 6.3499999,6.3499999 0 0 1 -0.0574,0.0925 6.3499999,6.3499999 0 0 1 -0.0594,0.09147 6.3499999,6.3499999 0 0 1 -0.061,0.09043 6.3499999,6.3499999 0 0 1 -0.0625,0.0894 6.3499999,6.3499999 0 0 1 -0.0636,0.08837 6.3499999,6.3499999 0 0 1 -0.0656,0.08682 6.3499999,6.3499999 0 0 1 -0.0667,0.0863 6.3499999,6.3499999 0 0 1 -0.0687,0.08475 6.3499999,6.3499999 0 0 1 -0.0698,0.08372 6.3499999,6.3499999 0 0 1 -0.0713,0.08268 6.3499999,6.3499999 0 0 1 -0.0724,0.08113 6.3499999,6.3499999 0 0 1 -0.0739,0.0801 6.3499999,6.3499999 0 0 1 -0.0755,0.07855 6.3499999,6.3499999 0 0 1 -0.077,0.07752 6.3499999,6.3499999 0 0 1 -0.078,0.07596 6.3499999,6.3499999 0 0 1 -0.0791,0.07493 6.3499999,6.3499999 0 0 1 -0.0806,0.07338 6.3499999,6.3499999 0 0 1 -0.0822,0.07183 6.3499999,6.3499999 0 0 1 -0.0827,0.07028 6.3499999,6.3499999 0 0 1 -0.0847,0.06925 6.3499999,6.3499999 0 0 1 -0.0853,0.0677 6.3499999,6.3499999 0 0 1 -0.0868,0.06614 6.3499999,6.3499999 0 0 1 -0.0873,0.0646 6.3499999,6.3499999 0 0 1 -0.0889,0.06356 6.3499999,6.3499999 0 0 1 -0.0899,0.06149 6.3499999,6.3499999 0 0 1 -0.0909,0.05995 6.3499999,6.3499999 0 0 1 -0.092,0.05839 6.3499999,6.3499999 0 0 1 -0.093,0.05684 6.3499999,6.3499999 0 0 1 -0.094,0.0553 6.3499999,6.3499999 0 0 1 -0.0946,0.05374 6.3499999,6.3499999 0 0 1 -0.0961,0.05219 6.3499999,6.3499999 0 0 1 -0.0966,0.05064 6.3499999,6.3499999 0 0 1 -0.0971,0.04858 6.3499999,6.3499999 0 0 1 -0.0982,0.04702 6.3499999,6.3499999 0 0 1 -0.0992,0.04548 6.3499999,6.3499999 0 0 1 -0.0997,0.04341 6.3499999,6.3499999 0 0 1 -0.10077,0.04238 6.3499999,6.3499999 0 0 1 -0.10129,0.03979 6.3499999,6.3499999 0 0 1 -0.1018,0.03876 6.3499999,6.3499999 0 0 1 -0.10284,0.03669 6.3499999,6.3499999 0 0 1 -0.10335,0.03462 6.3499999,6.3499999 0 0 1 -0.10387,0.03359 6.3499999,6.3499999 0 0 1 -0.10438,0.03101 6.3499999,6.3499999 0 0 1 -0.10491,0.02997 6.3499999,6.3499999 0 0 1 -0.10542,0.02739 6.3499999,6.3499999 0 0 1 -0.10594,0.02635 6.3499999,6.3499999 0 0 1 -0.10593,0.02377 6.3499999,6.3499999 0 0 1 -0.10697,0.02274 6.3499999,6.3499999 0 0 1 -0.10697,0.02015 6.3499999,6.3499999 0 0 1 -0.10749,0.0186 6.3499999,6.3499999 0 0 1 -0.10749,0.01705 6.3499999,6.3499999 0 0 1 -0.108,0.01499 6.3499999,6.3499999 0 0 1 -0.108,0.01292 6.3499999,6.3499999 0 0 1 -0.10852,0.01137 6.3499999,6.3499999 0 0 1 -0.10852,0.0093 6.3499999,6.3499999 0 0 1 -0.10904,0.0072 6.3499999,6.3499999 0 0 1 -0.10852,0.0057 6.3499999,6.3499999 0 0 1 -0.10904,0.0041 6.3499999,6.3499999 0 0 1 -0.10904,0.0016 6.3499999,6.3499999 0 0 1 -0.0558,5.18e-4 6.3499999,6.3499999 0 0 1 -0.10903,-0.001 6.3499999,6.3499999 0 0 1 -0.10904,-0.0031 6.3499999,6.3499999 0 0 1 -0.10904,-0.0047 6.3499999,6.3499999 0 0 1 -0.10852,-0.0062 6.3499999,6.3499999 0 0 1 -0.10903,-0.0088 6.3499999,6.3499999 0 0 1 -0.10853,-0.0098 6.3499999,6.3499999 0 0 1 -0.108,-0.0124 6.3499999,6.3499999 0 0 1 -0.108,-0.01395 6.3499999,6.3499999 0 0 1 -0.10801,-0.01602 6.3499999,6.3499999 0 0 1 -0.10748,-0.01757 6.3499999,6.3499999 0 0 1 -0.10749,-0.01964 6.3499999,6.3499999 0 0 1 -0.10645,-0.02119 6.3499999,6.3499999 0 0 1 -0.10697,-0.02325 6.3499999,6.3499999 0 0 1 -0.10594,-0.0248 6.3499999,6.3499999 0 0 1 -0.10542,-0.02687 6.3499999,6.3499999 0 0 1 -0.10542,-0.02894 6.3499999,6.3499999 0 0 1 -0.10439,-0.03049 6.3499999,6.3499999 0 0 1 -0.10438,-0.03204 6.3499999,6.3499999 0 0 1 -0.10336,-0.03411 6.3499999,6.3499999 0 0 1 -0.10283,-0.03566 6.3499999,6.3499999 0 0 1 -0.10232,-0.03772 6.3499999,6.3499999 0 0 1 -0.1018,-0.03927 6.3499999,6.3499999 0 0 1 -0.10077,-0.04134 6.3499999,6.3499999 0 0 1 -0.10026,-0.04238 6.3499999,6.3499999 0 0 1 -0.0997,-0.04444 6.3499999,6.3499999 0 0 1 -0.0987,-0.04651 6.3499999,6.3499999 0 0 1 -0.0977,-0.04806 6.3499999,6.3499999 0 0 1 -0.0971,-0.04909 6.3499999,6.3499999 0 0 1 -0.0961,-0.05168 6.3499999,6.3499999 0 0 1 -0.0956,-0.05271 6.3499999,6.3499999 0 0 1 -0.0946,-0.05426 6.3499999,6.3499999 0 0 1 -0.093,-0.05633 6.3499999,6.3499999 0 0 1 -0.0925,-0.05736 6.3499999,6.3499999 0 0 1 -0.0915,-0.05943 6.3499999,6.3499999 0 0 1 -0.0904,-0.06098 6.3499999,6.3499999 0 0 1 -0.0894,-0.06253 6.3499999,6.3499999 0 0 1 -0.0884,-0.06356 6.3499999,6.3499999 0 0 1 -0.0873,-0.06563 6.3499999,6.3499999 0 0 1 -0.0858,-0.06666 6.3499999,6.3499999 0 0 1 -0.0853,-0.06873 6.3499999,6.3499999 0 0 1 -0.0837,-0.06976 6.3499999,6.3499999 0 0 1 -0.0822,-0.07131 6.3499999,6.3499999 0 0 1 -0.0811,-0.07235 6.3499999,6.3499999 0 0 1 -0.0801,-0.0739 6.3499999,6.3499999 0 0 1 -0.0791,-0.07545 6.3499999,6.3499999 0 0 1 -0.077,-0.077 6.3499999,6.3499999 0 0 1 -0.0765,-0.07803 6.3499999,6.3499999 0 0 1 -0.0744,-0.07906 6.3499999,6.3499999 0 0 1 -0.0734,-0.08061 6.3499999,6.3499999 0 0 1 -0.0718,-0.08217 6.3499999,6.3499999 0 0 1 -0.0708,-0.0832 6.3499999,6.3499999 0 0 1 -0.0692,-0.08423 6.3499999,6.3499999 0 0 1 -0.0677,-0.08527 6.3499999,6.3499999 0 0 1 -0.0661,-0.08682 6.3499999,6.3499999 0 0 1 -0.0646,-0.08733 6.3499999,6.3499999 0 0 1 -0.063,-0.08888 6.3499999,6.3499999 0 0 1 -0.0615,-0.08992 6.3499999,6.3499999 0 0 1 -0.0605,-0.09095 6.3499999,6.3499999 0 0 1 -0.0584,-0.09199 6.3499999,6.3499999 0 0 1 -0.0568,-0.09302 6.3499999,6.3499999 0 0 1 -0.0553,-0.09405 6.3499999,6.3499999 0 0 1 -0.0538,-0.09457 6.3499999,6.3499999 0 0 1 -0.0522,-0.09612 6.3499999,6.3499999 0 0 1 -0.0501,-0.09664 6.3499999,6.3499999 0 0 1 -0.0491,-0.09715 6.3499999,6.3499999 0 0 1 -0.047,-0.09818 6.3499999,6.3499999 0 0 1 -0.045,-0.09922 6.3499999,6.3499999 0 0 1 -0.0439,-0.100253 6.3499999,6.3499999 0 0 1 -0.0419,-0.100251 6.3499999,6.3499999 0 0 1 -0.0403,-0.101285 6.3499999,6.3499999 0 0 1 -0.0382,-0.10232 6.3499999,6.3499999 0 0 1 -0.0367,-0.102319 6.3499999,6.3499999 0 0 1 -0.0351,-0.103354 6.3499999,6.3499999 0 0 1 -0.0331,-0.103868 6.3499999,6.3499999 0 0 1 -0.0315,-0.104389 6.3499999,6.3499999 0 0 1 -0.0295,-0.104902 6.3499999,6.3499999 0 0 1 -0.0279,-0.10542 6.3499999,6.3499999 0 0 1 -0.0258,-0.105937 6.3499999,6.3499999 0 0 1 -0.0243,-0.105936 6.3499999,6.3499999 0 0 1 -0.0222,-0.106971 6.3499999,6.3499999 0 0 1 -0.0207,-0.106969 6.3499999,6.3499999 0 0 1 -0.0186,-0.107487 6.3499999,6.3499999 0 0 1 -0.0165,-0.107487 6.3499999,6.3499999 0 0 1 -0.015,-0.108005 6.3499999,6.3499999 0 0 1 -0.0134,-0.108003 6.3499999,6.3499999 0 0 1 -0.0108,-0.108519 6.3499999,6.3499999 0 0 1 -0.009,-0.108521 6.3499999,6.3499999 0 0 1 -0.008,-0.109038 6.3499999,6.3499999 0 0 1 -0.006,-0.108521 6.3499999,6.3499999 0 0 1 -0.004,-0.109038 6.3499999,6.3499999 0 0 1 -0.002,-0.109037 6.3499999,6.3499999 0 0 1 0,-0.05581 6.3499999,6.3499999 0 0 1 10e-4,-0.109037 6.3499999,6.3499999 0 0 1 0.003,-0.109038 6.3499999,6.3499999 0 0 1 0.005,-0.109037 6.3499999,6.3499999 0 0 1 0.007,-0.108522 6.3499999,6.3499999 0 0 1 0.008,-0.109037 6.3499999,6.3499999 0 0 1 0.0103,-0.108519 6.3499999,6.3499999 0 0 1 0.0119,-0.108005 6.3499999,6.3499999 0 0 1 0.0139,-0.108003 6.3499999,6.3499999 0 0 1 0.016,-0.108003 6.3499999,6.3499999 0 0 1 0.0176,-0.107487 6.3499999,6.3499999 0 0 1 0.0196,-0.107487 6.3499999,6.3499999 0 0 1 0.0217,-0.106971 6.3499999,6.3499999 0 0 1 0.0227,-0.106453 6.3499999,6.3499999 0 0 1 0.0253,-0.105936 6.3499999,6.3499999 0 0 1 0.0269,-0.105421 6.3499999,6.3499999 0 0 1 0.0284,-0.10542 6.3499999,6.3499999 0 0 1 0.0305,-0.104386 6.3499999,6.3499999 0 0 1 0.0326,-0.104386 6.3499999,6.3499999 0 0 1 0.0336,-0.103355 6.3499999,6.3499999 0 0 1 0.0362,-0.102835 6.3499999,6.3499999 0 0 1 0.0372,-0.10232 6.3499999,6.3499999 0 0 1 0.0398,-0.101801 6.3499999,6.3499999 0 0 1 0.0408,-0.100769 6.3499999,6.3499999 0 0 1 0.0429,-0.100254 6.3499999,6.3499999 0 0 1 0.0444,-0.09973 6.3499999,6.3499999 0 0 1 0.046,-0.0987 6.3499999,6.3499999 0 0 1 0.0481,-0.09767 6.3499999,6.3499999 0 0 1 0.0496,-0.09715 6.3499999,6.3499999 0 0 1 0.0512,-0.09663 6.3499999,6.3499999 0 0 1 0.0527,-0.09509 6.3499999,6.3499999 0 0 1 0.0548,-0.09457 6.3499999,6.3499999 0 0 1 0.0558,-0.09302 6.3499999,6.3499999 0 0 1 0.0579,-0.0925 6.3499999,6.3499999 0 0 1 0.0594,-0.09147 6.3499999,6.3499999 0 0 1 0.0605,-0.09043 6.3499999,6.3499999 0 0 1 0.0625,-0.0894 6.3499999,6.3499999 0 0 1 0.0641,-0.08836 6.3499999,6.3499999 0 0 1 0.0651,-0.08733 6.3499999,6.3499999 0 0 1 0.0672,-0.08578 6.3499999,6.3499999 0 0 1 0.0682,-0.08527 6.3499999,6.3499999 0 0 1 0.0698,-0.08372 6.3499999,6.3499999 0 0 1 0.0713,-0.08217 6.3499999,6.3499999 0 0 1 0.0729,-0.08165 6.3499999,6.3499999 0 0 1 0.0739,-0.07958 6.3499999,6.3499999 0 0 1 0.0755,-0.07906 6.3499999,6.3499999 0 0 1 0.0765,-0.077 6.3499999,6.3499999 0 0 1 0.078,-0.07648 6.3499999,6.3499999 0 0 1 0.0796,-0.07441 6.3499999,6.3499999 0 0 1 0.0806,-0.07338 6.3499999,6.3499999 0 0 1 0.0816,-0.07235 6.3499999,6.3499999 0 0 1 0.0832,-0.07028 6.3499999,6.3499999 0 0 1 0.0842,-0.06925 6.3499999,6.3499999 0 0 1 0.0853,-0.0677 6.3499999,6.3499999 0 0 1 0.0868,-0.06615 6.3499999,6.3499999 0 0 1 0.0878,-0.0646 6.3499999,6.3499999 0 0 1 0.0889,-0.06305 6.3499999,6.3499999 0 0 1 0.0899,-0.06149 6.3499999,6.3499999 0 0 1 0.0909,-0.06046 6.3499999,6.3499999 0 0 1 0.092,-0.05839 6.3499999,6.3499999 0 0 1 0.0925,-0.05684 6.3499999,6.3499999 0 0 1 0.094,-0.0553 6.3499999,6.3499999 0 0 1 0.0951,-0.05374 6.3499999,6.3499999 0 0 1 0.0956,-0.05219 6.3499999,6.3499999 0 0 1 0.0966,-0.05012 6.3499999,6.3499999 0 0 1 0.0977,-0.04909 6.3499999,6.3499999 0 0 1 0.0982,-0.04702 6.3499999,6.3499999 0 0 1 0.0992,-0.04548 6.3499999,6.3499999 0 0 1 0.0997,-0.04341 6.3499999,6.3499999 0 0 1 0.10077,-0.04186 6.3499999,6.3499999 0 0 1 0.10129,-0.04031 6.3499999,6.3499999 0 0 1 0.1018,-0.03824 6.3499999,6.3499999 0 0 1 0.10284,-0.03721 6.3499999,6.3499999 0 0 1 0.10283,-0.03462 6.3499999,6.3499999 0 0 1 0.10387,-0.03307 6.3499999,6.3499999 0 0 1 0.10439,-0.03152 6.3499999,6.3499999 0 0 1 0.1049,-0.02946 6.3499999,6.3499999 0 0 1 0.10542,-0.0279 6.3499999,6.3499999 0 0 1 0.10594,-0.02584 6.3499999,6.3499999 0 0 1 0.10645,-0.02429 6.3499999,6.3499999 0 0 1 0.10645,-0.02222 6.3499999,6.3499999 0 0 1 0.10698,-0.02067 6.3499999,6.3499999 0 0 1 0.10748,-0.0186 6.3499999,6.3499999 0 0 1 0.10801,-0.01654 6.3499999,6.3499999 0 0 1 0.10748,-0.01499 6.3499999,6.3499999 0 0 1 0.10852,-0.01344 6.3499999,6.3499999 0 0 1 0.10852,-0.01085 6.3499999,6.3499999 0 0 1 0.10852,-0.0093 6.3499999,6.3499999 0 0 1 0.10852,-0.0078 6.3499999,6.3499999 0 0 1 0.10904,-0.0057 6.3499999,6.3499999 0 0 1 0.10904,-0.0036 6.3499999,6.3499999 0 0 1 0.10904,-0.0021 z" />
    <g
       id="g848"
       style="opacity:0.8"
       transform="matrix(1.5789216,0,0,1.6124626,-27.652469,-114.27185)">
      <g
         id="g841">
        <path
           id="path1462"
           style="opacity:1;fill:#000000;stroke-width:0.0787241"
           d="m 72.776963,79.072258 a 4.0331797,3.9712664 0 0 0 -3.802867,2.648418 h -4.186309 v 2.645833 h 4.186825 a 4.0331797,3.9712664 0 0 0 3.802351,2.648416 4.0331797,3.9712664 0 0 0 4.033345,-3.971333 4.0331797,3.9712664 0 0 0 -4.033345,-3.971334 z m 0,1.060918 a 2.9104166,2.9104166 0 0 1 0.0739,10e-4 2.9104166,2.9104166 0 0 1 0.07338,0.0026 2.9104166,2.9104166 0 0 1 0.0739,0.0047 2.9104166,2.9104166 0 0 1 0.07338,0.0067 2.9104166,2.9104166 0 0 1 0.07338,0.0083 2.9104166,2.9104166 0 0 1 0.07286,0.01033 2.9104166,2.9104166 0 0 1 0.07286,0.01189 2.9104166,2.9104166 0 0 1 0.07235,0.01395 2.9104166,2.9104166 0 0 1 0.07234,0.01602 2.9104166,2.9104166 0 0 1 0.07183,0.01757 2.9104166,2.9104166 0 0 1 0.0708,0.01912 2.9104166,2.9104166 0 0 1 0.0708,0.02119 2.9104166,2.9104166 0 0 1 0.07028,0.02325 2.9104166,2.9104166 0 0 1 0.06925,0.0248 2.9104166,2.9104166 0 0 1 0.06925,0.02636 2.9104166,2.9104166 0 0 1 0.06821,0.02842 2.9104166,2.9104166 0 0 1 0.0677,0.02997 2.9104166,2.9104166 0 0 1 0.06666,0.03153 2.9104166,2.9104166 0 0 1 0.06563,0.03359 2.9104166,2.9104166 0 0 1 0.06511,0.03462 2.9104166,2.9104166 0 0 1 0.06408,0.03669 2.9104166,2.9104166 0 0 1 0.06253,0.03824 2.9104166,2.9104166 0 0 1 0.06201,0.04031 2.9104166,2.9104166 0 0 1 0.06098,0.04134 2.9104166,2.9104166 0 0 1 0.05995,0.04289 2.9104166,2.9104166 0 0 1 0.05891,0.04444 2.9104166,2.9104166 0 0 1 0.05788,0.04599 2.9104166,2.9104166 0 0 1 0.05684,0.04703 2.9104166,2.9104166 0 0 1 0.0553,0.04909 2.9104166,2.9104166 0 0 1 0.05374,0.05013 2.9104166,2.9104166 0 0 1 0.05323,0.05168 2.9104166,2.9104166 0 0 1 0.05116,0.05271 2.9104166,2.9104166 0 0 1 0.05064,0.05426 2.9104166,2.9104166 0 0 1 0.04858,0.0553 2.9104166,2.9104166 0 0 1 0.04754,0.05684 2.9104166,2.9104166 0 0 1 0.04599,0.05736 2.9104166,2.9104166 0 0 1 0.04393,0.05891 2.9104166,2.9104166 0 0 1 0.04289,0.06046 2.9104166,2.9104166 0 0 1 0.04134,0.06098 2.9104166,2.9104166 0 0 1 0.03979,0.06201 2.9104166,2.9104166 0 0 1 0.03824,0.06305 2.9104166,2.9104166 0 0 1 0.03617,0.06408 2.9104166,2.9104166 0 0 1 0.03514,0.06511 2.9104166,2.9104166 0 0 1 0.03307,0.06614 2.9104166,2.9104166 0 0 1 0.03204,0.06666 2.9104166,2.9104166 0 0 1 0.02946,0.06718 2.9104166,2.9104166 0 0 1 0.02842,0.06821 2.9104166,2.9104166 0 0 1 0.02635,0.06873 2.9104166,2.9104166 0 0 1 0.0248,0.06976 2.9104166,2.9104166 0 0 1 0.02274,0.07028 2.9104166,2.9104166 0 0 1 0.02119,0.0708 2.9104166,2.9104166 0 0 1 0.01912,0.0708 2.9104166,2.9104166 0 0 1 0.01757,0.07183 2.9104166,2.9104166 0 0 1 0.01602,0.07235 2.9104166,2.9104166 0 0 1 0.01395,0.07235 2.9104166,2.9104166 0 0 1 0.01188,0.07286 2.9104166,2.9104166 0 0 1 0.01034,0.07286 2.9104166,2.9104166 0 0 1 0.0088,0.07338 2.9104166,2.9104166 0 0 1 0.0062,0.07338 2.9104166,2.9104166 0 0 1 0.0046,0.0739 2.9104166,2.9104166 0 0 1 0.0026,0.07338 2.9104166,2.9104166 0 0 1 0.001,0.0708 2.9104166,2.9104166 0 0 1 -0.001,0.0739 2.9104166,2.9104166 0 0 1 -0.0026,0.07338 2.9104166,2.9104166 0 0 1 -0.0046,0.0739 2.9104166,2.9104166 0 0 1 -0.0067,0.07338 2.9104166,2.9104166 0 0 1 -0.0088,0.07338 2.9104166,2.9104166 0 0 1 -0.0098,0.07286 2.9104166,2.9104166 0 0 1 -0.0124,0.07286 2.9104166,2.9104166 0 0 1 -0.01395,0.07235 2.9104166,2.9104166 0 0 1 -0.0155,0.07235 2.9104166,2.9104166 0 0 1 -0.01757,0.07131 2.9104166,2.9104166 0 0 1 -0.01963,0.07131 2.9104166,2.9104166 0 0 1 -0.02119,0.0708 2.9104166,2.9104166 0 0 1 -0.02274,0.07028 2.9104166,2.9104166 0 0 1 -0.02481,0.06925 2.9104166,2.9104166 0 0 1 -0.02636,0.06873 2.9104166,2.9104166 0 0 1 -0.02842,0.06821 2.9104166,2.9104166 0 0 1 -0.02997,0.0677 2.9104166,2.9104166 0 0 1 -0.03152,0.06666 2.9104166,2.9104166 0 0 1 -0.03359,0.06563 2.9104166,2.9104166 0 0 1 -0.03514,0.06511 2.9104166,2.9104166 0 0 1 -0.03669,0.06408 2.9104166,2.9104166 0 0 1 -0.03824,0.06305 2.9104166,2.9104166 0 0 1 -0.03979,0.06201 2.9104166,2.9104166 0 0 1 -0.04134,0.06098 2.9104166,2.9104166 0 0 1 -0.04289,0.05994 2.9104166,2.9104166 0 0 1 -0.04444,0.05891 2.9104166,2.9104166 0 0 1 -0.04599,0.05788 2.9104166,2.9104166 0 0 1 -0.04754,0.05685 2.9104166,2.9104166 0 0 1 -0.04857,0.05529 2.9104166,2.9104166 0 0 1 -0.05012,0.05374 2.9104166,2.9104166 0 0 1 -0.05168,0.05271 2.9104166,2.9104166 0 0 1 -0.05271,0.05168 2.9104166,2.9104166 0 0 1 -0.05426,0.05013 2.9104166,2.9104166 0 0 1 -0.0553,0.04858 2.9104166,2.9104166 0 0 1 -0.05684,0.04754 2.9104166,2.9104166 0 0 1 -0.05788,0.04599 2.9104166,2.9104166 0 0 1 -0.05891,0.04444 2.9104166,2.9104166 0 0 1 -0.05994,0.04289 2.9104166,2.9104166 0 0 1 -0.0615,0.04134 2.9104166,2.9104166 0 0 1 -0.06253,0.03979 2.9104166,2.9104166 0 0 1 -0.06305,0.03773 2.9104166,2.9104166 0 0 1 -0.06408,0.03669 2.9104166,2.9104166 0 0 1 -0.0646,0.03514 2.9104166,2.9104166 0 0 1 -0.06615,0.03307 2.9104166,2.9104166 0 0 1 -0.06666,0.03152 2.9104166,2.9104166 0 0 1 -0.06718,0.02997 2.9104166,2.9104166 0 0 1 -0.06821,0.02842 2.9104166,2.9104166 0 0 1 -0.06925,0.02635 2.9104166,2.9104166 0 0 1 -0.06925,0.02481 2.9104166,2.9104166 0 0 1 -0.07028,0.02274 2.9104166,2.9104166 0 0 1 -0.0708,0.02119 2.9104166,2.9104166 0 0 1 -0.07131,0.01912 2.9104166,2.9104166 0 0 1 -0.07131,0.01757 2.9104166,2.9104166 0 0 1 -0.07235,0.01602 2.9104166,2.9104166 0 0 1 -0.07235,0.01344 2.9104166,2.9104166 0 0 1 -0.07286,0.0124 2.9104166,2.9104166 0 0 1 -0.07286,0.0098 2.9104166,2.9104166 0 0 1 -0.07338,0.0083 2.9104166,2.9104166 0 0 1 -0.0739,0.0067 2.9104166,2.9104166 0 0 1 -0.07338,0.0046 2.9104166,2.9104166 0 0 1 -0.0739,0.0026 2.9104166,2.9104166 0 0 1 -0.07028,0.001 2.9104166,2.9104166 0 0 1 -0.0739,-0.001 2.9104166,2.9104166 0 0 1 -0.0739,-0.0026 2.9104166,2.9104166 0 0 1 -0.07338,-0.0052 2.9104166,2.9104166 0 0 1 -0.07338,-0.0062 2.9104166,2.9104166 0 0 1 -0.07338,-0.0083 2.9104166,2.9104166 0 0 1 -0.07338,-0.01034 2.9104166,2.9104166 0 0 1 -0.07234,-0.0124 2.9104166,2.9104166 0 0 1 -0.07286,-0.01396 2.9104166,2.9104166 0 0 1 -0.07183,-0.0155 2.9104166,2.9104166 0 0 1 -0.07183,-0.01757 2.9104166,2.9104166 0 0 1 -0.07131,-0.01964 2.9104166,2.9104166 0 0 1 -0.07028,-0.02119 2.9104166,2.9104166 0 0 1 -0.07028,-0.02274 2.9104166,2.9104166 0 0 1 -0.06925,-0.02481 2.9104166,2.9104166 0 0 1 -0.06925,-0.02687 2.9104166,2.9104166 0 0 1 -0.06821,-0.02791 2.9104166,2.9104166 0 0 1 -0.06718,-0.02997 2.9104166,2.9104166 0 0 1 -0.06666,-0.03204 2.9104166,2.9104166 0 0 1 -0.06563,-0.03307 2.9104166,2.9104166 0 0 1 -0.06511,-0.03514 2.9104166,2.9104166 0 0 1 -0.06408,-0.03669 2.9104166,2.9104166 0 0 1 -0.06305,-0.03824 2.9104166,2.9104166 0 0 1 -0.06201,-0.03979 2.9104166,2.9104166 0 0 1 -0.0615,-0.04134 2.9104166,2.9104166 0 0 1 -0.05994,-0.04289 2.9104166,2.9104166 0 0 1 -0.05891,-0.04444 2.9104166,2.9104166 0 0 1 -0.05736,-0.04599 2.9104166,2.9104166 0 0 1 -0.05684,-0.04754 2.9104166,2.9104166 0 0 1 -0.05529,-0.04857 2.9104166,2.9104166 0 0 1 -0.05426,-0.05013 2.9104166,2.9104166 0 0 1 -0.05271,-0.05168 2.9104166,2.9104166 0 0 1 -0.05116,-0.05271 2.9104166,2.9104166 0 0 1 -0.05012,-0.05426 2.9104166,2.9104166 0 0 1 -0.04909,-0.0553 2.9104166,2.9104166 0 0 1 -0.04702,-0.05684 2.9104166,2.9104166 0 0 1 -0.04599,-0.05788 2.9104166,2.9104166 0 0 1 -0.04444,-0.05891 2.9104166,2.9104166 0 0 1 -0.04289,-0.05994 2.9104166,2.9104166 0 0 1 -0.04134,-0.06098 2.9104166,2.9104166 0 0 1 -0.03979,-0.06253 2.9104166,2.9104166 0 0 1 -0.03824,-0.06304 2.9104166,2.9104166 0 0 1 -0.03669,-0.06408 2.9104166,2.9104166 0 0 1 -0.03462,-0.06511 2.9104166,2.9104166 0 0 1 -0.03359,-0.06563 2.9104166,2.9104166 0 0 1 -0.03152,-0.06666 2.9104166,2.9104166 0 0 1 -0.02997,-0.0677 2.9104166,2.9104166 0 0 1 -0.02791,-0.06821 2.9104166,2.9104166 0 0 1 -0.02636,-0.06873 2.9104166,2.9104166 0 0 1 -0.0248,-0.06925 2.9104166,2.9104166 0 0 1 -0.02274,-0.07028 2.9104166,2.9104166 0 0 1 -0.02119,-0.0708 2.9104166,2.9104166 0 0 1 -0.01964,-0.07131 2.9104166,2.9104166 0 0 1 -0.01757,-0.07183 2.9104166,2.9104166 0 0 1 -0.0155,-0.07183 2.9104166,2.9104166 0 0 1 -0.01395,-0.07235 2.9104166,2.9104166 0 0 1 -0.01189,-0.07286 2.9104166,2.9104166 0 0 1 -0.01033,-0.07338 2.9104166,2.9104166 0 0 1 -0.0083,-0.07286 2.9104166,2.9104166 0 0 1 -0.0062,-0.0739 2.9104166,2.9104166 0 0 1 -0.0046,-0.07338 2.9104166,2.9104166 0 0 1 -0.0026,-0.0739 2.9104166,2.9104166 0 0 1 -10e-4,-0.07028 2.9104166,2.9104166 0 0 1 10e-4,-0.0739 2.9104166,2.9104166 0 0 1 0.0026,-0.0739 2.9104166,2.9104166 0 0 1 0.0046,-0.07338 2.9104166,2.9104166 0 0 1 0.0067,-0.07338 2.9104166,2.9104166 0 0 1 0.0083,-0.07338 2.9104166,2.9104166 0 0 1 0.01034,-0.07338 2.9104166,2.9104166 0 0 1 0.01188,-0.07286 2.9104166,2.9104166 0 0 1 0.01395,-0.07235 2.9104166,2.9104166 0 0 1 0.01602,-0.07183 2.9104166,2.9104166 0 0 1 0.01757,-0.07183 2.9104166,2.9104166 0 0 1 0.01963,-0.07131 2.9104166,2.9104166 0 0 1 0.02119,-0.07028 2.9104166,2.9104166 0 0 1 0.02274,-0.07028 2.9104166,2.9104166 0 0 1 0.0248,-0.06976 2.9104166,2.9104166 0 0 1 0.02636,-0.06873 2.9104166,2.9104166 0 0 1 0.02842,-0.06821 2.9104166,2.9104166 0 0 1 0.02997,-0.06718 2.9104166,2.9104166 0 0 1 0.03152,-0.06666 2.9104166,2.9104166 0 0 1 0.03359,-0.06614 2.9104166,2.9104166 0 0 1 0.03514,-0.0646 2.9104166,2.9104166 0 0 1 0.03669,-0.06408 2.9104166,2.9104166 0 0 1 0.03824,-0.06304 2.9104166,2.9104166 0 0 1 0.03979,-0.06201 2.9104166,2.9104166 0 0 1 0.04134,-0.0615 2.9104166,2.9104166 0 0 1 0.04289,-0.05994 2.9104166,2.9104166 0 0 1 0.04444,-0.05891 2.9104166,2.9104166 0 0 1 0.04599,-0.05788 2.9104166,2.9104166 0 0 1 0.04703,-0.05633 2.9104166,2.9104166 0 0 1 0.04909,-0.05529 2.9104166,2.9104166 0 0 1 0.05012,-0.05426 2.9104166,2.9104166 0 0 1 0.05168,-0.05271 2.9104166,2.9104166 0 0 1 0.05271,-0.05168 2.9104166,2.9104166 0 0 1 0.05426,-0.05013 2.9104166,2.9104166 0 0 1 0.0553,-0.04858 2.9104166,2.9104166 0 0 1 0.05684,-0.04702 2.9104166,2.9104166 0 0 1 0.05788,-0.04599 2.9104166,2.9104166 0 0 1 0.05891,-0.04444 2.9104166,2.9104166 0 0 1 0.05994,-0.04289 2.9104166,2.9104166 0 0 1 0.06098,-0.04134 2.9104166,2.9104166 0 0 1 0.06201,-0.03979 2.9104166,2.9104166 0 0 1 0.06356,-0.03824 2.9104166,2.9104166 0 0 1 0.06408,-0.03669 2.9104166,2.9104166 0 0 1 0.0646,-0.03462 2.9104166,2.9104166 0 0 1 0.06615,-0.03359 2.9104166,2.9104166 0 0 1 0.06666,-0.03152 2.9104166,2.9104166 0 0 1 0.06718,-0.02997 2.9104166,2.9104166 0 0 1 0.06822,-0.0279 2.9104166,2.9104166 0 0 1 0.06925,-0.02636 2.9104166,2.9104166 0 0 1 0.06925,-0.0248 2.9104166,2.9104166 0 0 1 0.07028,-0.02274 2.9104166,2.9104166 0 0 1 0.0708,-0.02119 2.9104166,2.9104166 0 0 1 0.0708,-0.01964 2.9104166,2.9104166 0 0 1 0.07183,-0.01757 2.9104166,2.9104166 0 0 1 0.07235,-0.01551 2.9104166,2.9104166 0 0 1 0.07235,-0.01395 2.9104166,2.9104166 0 0 1 0.07286,-0.01188 2.9104166,2.9104166 0 0 1 0.07286,-0.01034 2.9104166,2.9104166 0 0 1 0.07338,-0.0083 2.9104166,2.9104166 0 0 1 0.07338,-0.0062 2.9104166,2.9104166 0 0 1 0.0739,-0.0047 2.9104166,2.9104166 0 0 1 0.0739,-0.0031 2.9104166,2.9104166 0 0 1 0.07028,-5.16e-4 z"
           inkscape:export-xdpi="96"
           inkscape:export-ydpi="96" />
        <path
           id="path1498"
           style="opacity:1;fill:#000000;stroke-width:0.262822"
           d="M 50.757121,94.888345 V 92.165 c 0,-0.538898 0.05429,-1.064504 0.157612,-1.571998 0.103322,-0.507495 0.255802,-0.996625 0.452168,-1.462445 0.196373,-0.465812 0.436575,-0.908529 0.715719,-1.322398 0.279146,-0.413869 0.597135,-0.79919 0.94878,-1.150834 0.351644,-0.351645 0.736965,-0.669634 1.150834,-0.94878 0.413869,-0.279146 0.85658,-0.519348 1.322401,-0.715719 0.465817,-0.196371 0.954947,-0.348846 1.462442,-0.452168 0.507494,-0.103322 1.0331,-0.157612 1.571998,-0.157612 h 6.248712 v -2.66237 H 39.225008 a 25.646568,21.969988 0 0 1 0.124023,0.06459 25.646568,21.969988 0 0 1 0.19327,0.102317 25.646568,21.969988 0 0 1 0.192236,0.10387 25.646568,21.969988 0 0 1 0.190685,0.104905 25.646568,21.969988 0 0 1 0.190169,0.106453 25.646568,21.969988 0 0 1 0.188619,0.108003 25.646568,21.969988 0 0 1 0.187587,0.109556 25.646568,21.969988 0 0 1 0.186552,0.110587 25.646568,21.969988 0 0 1 0.185518,0.112136 25.646568,21.969988 0 0 1 0.184484,0.113689 25.646568,21.969988 0 0 1 0.182935,0.115239 25.646568,21.969988 0 0 1 0.181901,0.116271 25.646568,21.969988 0 0 1 0.180351,0.117822 25.646568,21.969988 0 0 1 0.179835,0.119375 25.646568,21.969988 0 0 1 0.177765,0.120404 25.646568,21.969988 0 0 1 0.177252,0.121957 25.646568,21.969988 0 0 1 0.1757,0.122989 25.646568,21.969988 0 0 1 0.174148,0.124542 25.646568,21.969988 0 0 1 0.173117,0.125573 25.646568,21.969988 0 0 1 0.171567,0.127125 25.646568,21.969988 0 0 1 0.170532,0.128672 25.646568,21.969988 0 0 1 0.169497,0.129709 25.646568,21.969988 0 0 1 0.167431,0.130742 25.646568,21.969988 0 0 1 0.166399,0.132291 25.646568,21.969988 0 0 1 0.165365,0.133842 25.646568,21.969988 0 0 1 0.163298,0.134874 25.646568,21.969988 0 0 1 0.162263,0.135911 25.646568,21.969988 0 0 1 0.161232,0.136941 25.646568,21.969988 0 0 1 0.159163,0.138493 25.646568,21.969988 0 0 1 0.158128,0.139528 25.646568,21.969988 0 0 1 0.156581,0.141076 25.646568,21.969988 0 0 1 0.15503,0.142111 25.646568,21.969988 0 0 1 0.153479,0.143142 25.646568,21.969988 0 0 1 0.151926,0.144179 25.646568,21.969988 0 0 1 0.150898,0.145727 25.646568,21.969988 0 0 1 0.148828,0.146244 25.646568,21.969988 0 0 1 0.147793,0.147793 25.646568,21.969988 0 0 1 0.146246,0.148828 25.646568,21.969988 0 0 1 0.144177,0.150379 25.646568,21.969988 0 0 1 0.143142,0.150897 25.646568,21.969988 0 0 1 0.141595,0.151929 25.646568,21.969988 0 0 1 0.139525,0.153477 25.646568,21.969988 0 0 1 0.138493,0.153995 25.646568,21.969988 0 0 1 0.136428,0.155549 25.646568,21.969988 0 0 1 0.134874,0.156062 25.646568,21.969988 0 0 1 0.133326,0.157612 25.646568,21.969988 0 0 1 0.131773,0.158131 25.646568,21.969988 0 0 1 0.130225,0.159679 25.646568,21.969988 0 0 1 0.128675,0.160197 25.646568,21.969988 0 0 1 0.126608,0.161232 25.646568,21.969988 0 0 1 0.125056,0.162263 25.646568,21.969988 0 0 1 0.123507,0.163298 25.646568,21.969988 0 0 1 0.121957,0.163815 25.646568,21.969988 0 0 1 0.119888,0.165364 25.646568,21.969988 0 0 1 0.11834,0.165881 25.646568,21.969988 0 0 1 0.116787,0.166915 25.646568,21.969988 0 0 1 0.114724,0.167431 25.646568,21.969988 0 0 1 0.11317,0.168981 25.646568,21.969988 0 0 1 0.111622,0.168984 25.646568,21.969988 0 0 1 0.109554,0.170532 25.646568,21.969988 0 0 1 0.108003,0.171048 25.646568,21.969988 0 0 1 0.105936,0.172082 25.646568,21.969988 0 0 1 0.104386,0.172601 25.646568,21.969988 0 0 1 0.102838,0.173633 25.646568,21.969988 0 0 1 0.100767,0.174149 25.646568,21.969988 0 0 1 0.0987,0.174667 25.646568,21.969988 0 0 1 0.09715,0.176215 25.646568,21.969988 0 0 1 0.0956,0.176218 25.646568,21.969988 0 0 1 0.09353,0.17725 25.646568,21.969988 0 0 1 0.09147,0.177765 25.646568,21.969988 0 0 1 0.08992,0.1788 25.646568,21.969988 0 0 1 0.08785,0.179319 25.646568,21.969988 0 0 1 0.0863,0.179835 25.646568,21.969988 0 0 1 0.08423,0.18035 25.646568,21.969988 0 0 1 0.08217,0.181383 25.646568,21.969988 0 0 1 0.08062,0.181901 25.646568,21.969988 0 0 1 0.07855,0.182419 25.646568,21.969988 0 0 1 0.077,0.182933 25.646568,21.969988 0 0 1 0.07493,0.183452 25.646568,21.969988 0 0 1 0.07286,0.184486 25.646568,21.969988 0 0 1 0.0708,0.184483 25.646568,21.969988 0 0 1 0.06925,0.185002 25.646568,21.969988 0 0 1 0.06718,0.186037 25.646568,21.969988 0 0 1 0.06511,0.186034 25.646568,21.969988 0 0 1 0.06356,0.187068 25.646568,21.969988 0 0 1 0.06149,0.187071 25.646568,21.969988 0 0 1 0.05943,0.187584 25.646568,21.969988 0 0 1 0.0072,0.02377 z" />
        <path
           id="rect1520"
           style="opacity:1;fill:#000000;stroke-width:0.244459"
           d="m 23.392382,81.720673 h 26.398836 c 0.543449,0 0.980955,0.437506 0.980955,0.980955 v 12.543634 c 0,0.543449 -0.437506,0.980955 -0.980955,0.980955 H 23.392382 c -0.54345,0 -0.980955,-0.437506 -0.980955,-0.980955 V 82.701628 c 0,-0.543449 0.437505,-0.980955 0.980955,-0.980955 z" />
        <path
           id="rect833"
           style="fill:#000000;stroke-width:0.219411"
           d="m 64.722908,81.851997 h 4.5122 v 2.531174 h -4.5122 z" />
      </g>
    </g>
  </g>
</svg>
