<?xml version="1.0" encoding="UTF-8" standalone="no"?>
<svg
   xmlns:dc="http://purl.org/dc/elements/1.1/"
   xmlns:cc="http://creativecommons.org/ns#"
   xmlns:rdf="http://www.w3.org/1999/02/22-rdf-syntax-ns#"
   xmlns:svg="http://www.w3.org/2000/svg"
   xmlns="http://www.w3.org/2000/svg"
   xmlns:sodipodi="http://sodipodi.sourceforge.net/DTD/sodipodi-0.dtd"
   xmlns:inkscape="http://www.inkscape.org/namespaces/inkscape"
   width="210mm"
   height="297mm"
   viewBox="0 0 210 297"
   version="1.1"
   id="svg871"
   inkscape:version="1.0.2 (e86c870879, 2021-01-15, custom)"
   sodipodi:docname="mirino2.svg"
   inkscape:export-filename="/home/andrea/Sviluppo/denso/images/mirino2.png"
   inkscape:export-xdpi="96"
   inkscape:export-ydpi="96">
  <defs
     id="defs865" />
  <sodipodi:namedview
     id="base"
     pagecolor="#ffffff"
     bordercolor="#666666"
     borderopacity="1.0"
     inkscape:pageopacity="0.0"
     inkscape:pageshadow="2"
     inkscape:zoom="3.732452"
     inkscape:cx="210.51042"
     inkscape:cy="299.38292"
     inkscape:document-units="mm"
     inkscape:current-layer="layer1"
     inkscape:document-rotation="0"
     showgrid="false"
     inkscape:window-width="1920"
     inkscape:window-height="1136"
     inkscape:window-x="0"
     inkscape:window-y="27"
     inkscape:window-maximized="1" />
  <metadata
     id="metadata868">
    <rdf:RDF>
      <cc:Work
         rdf:about="">
        <dc:format>image/svg+xml</dc:format>
        <dc:type
           rdf:resource="http://purl.org/dc/dcmitype/StillImage" />
        <dc:title></dc:title>
      </cc:Work>
    </rdf:RDF>
  </metadata>
  <g
     inkscape:label="Livello 1"
     inkscape:groupmode="layer"
     id="layer1">
    <g
       id="g848"
       style="opacity:0.8">
      <g
         id="g841">
        <path
           id="path1462"
           style="opacity:1;fill:#000000;stroke-width:0.0787241"
           d="m 72.776963,79.072258 a 4.0331797,3.9712664 0 0 0 -3.802867,2.648418 h -4.186309 v 2.645833 h 4.186825 a 4.0331797,3.9712664 0 0 0 3.802351,2.648416 4.0331797,3.9712664 0 0 0 4.033345,-3.971333 4.0331797,3.9712664 0 0 0 -4.033345,-3.971334 z m 0,1.060918 a 2.9104166,2.9104166 0 0 1 0.0739,10e-4 2.9104166,2.9104166 0 0 1 0.07338,0.0026 2.9104166,2.9104166 0 0 1 0.0739,0.0047 2.9104166,2.9104166 0 0 1 0.07338,0.0067 2.9104166,2.9104166 0 0 1 0.07338,0.0083 2.9104166,2.9104166 0 0 1 0.07286,0.01033 2.9104166,2.9104166 0 0 1 0.07286,0.01189 2.9104166,2.9104166 0 0 1 0.07235,0.01395 2.9104166,2.9104166 0 0 1 0.07234,0.01602 2.9104166,2.9104166 0 0 1 0.07183,0.01757 2.9104166,2.9104166 0 0 1 0.0708,0.01912 2.9104166,2.9104166 0 0 1 0.0708,0.02119 2.9104166,2.9104166 0 0 1 0.07028,0.02325 2.9104166,2.9104166 0 0 1 0.06925,0.0248 2.9104166,2.9104166 0 0 1 0.06925,0.02636 2.9104166,2.9104166 0 0 1 0.06821,0.02842 2.9104166,2.9104166 0 0 1 0.0677,0.02997 2.9104166,2.9104166 0 0 1 0.06666,0.03153 2.9104166,2.9104166 0 0 1 0.06563,0.03359 2.9104166,2.9104166 0 0 1 0.06511,0.03462 2.9104166,2.9104166 0 0 1 0.06408,0.03669 2.9104166,2.9104166 0 0 1 0.06253,0.03824 2.9104166,2.9104166 0 0 1 0.06201,0.04031 2.9104166,2.9104166 0 0 1 0.06098,0.04134 2.9104166,2.9104166 0 0 1 0.05995,0.04289 2.9104166,2.9104166 0 0 1 0.05891,0.04444 2.9104166,2.9104166 0 0 1 0.05788,0.04599 2.9104166,2.9104166 0 0 1 0.05684,0.04703 2.9104166,2.9104166 0 0 1 0.0553,0.04909 2.9104166,2.9104166 0 0 1 0.05374,0.05013 2.9104166,2.9104166 0 0 1 0.05323,0.05168 2.9104166,2.9104166 0 0 1 0.05116,0.05271 2.9104166,2.9104166 0 0 1 0.05064,0.05426 2.9104166,2.9104166 0 0 1 0.04858,0.0553 2.9104166,2.9104166 0 0 1 0.04754,0.05684 2.9104166,2.9104166 0 0 1 0.04599,0.05736 2.9104166,2.9104166 0 0 1 0.04393,0.05891 2.9104166,2.9104166 0 0 1 0.04289,0.06046 2.9104166,2.9104166 0 0 1 0.04134,0.06098 2.9104166,2.9104166 0 0 1 0.03979,0.06201 2.9104166,2.9104166 0 0 1 0.03824,0.06305 2.9104166,2.9104166 0 0 1 0.03617,0.06408 2.9104166,2.9104166 0 0 1 0.03514,0.06511 2.9104166,2.9104166 0 0 1 0.03307,0.06614 2.9104166,2.9104166 0 0 1 0.03204,0.06666 2.9104166,2.9104166 0 0 1 0.02946,0.06718 2.9104166,2.9104166 0 0 1 0.02842,0.06821 2.9104166,2.9104166 0 0 1 0.02635,0.06873 2.9104166,2.9104166 0 0 1 0.0248,0.06976 2.9104166,2.9104166 0 0 1 0.02274,0.07028 2.9104166,2.9104166 0 0 1 0.02119,0.0708 2.9104166,2.9104166 0 0 1 0.01912,0.0708 2.9104166,2.9104166 0 0 1 0.01757,0.07183 2.9104166,2.9104166 0 0 1 0.01602,0.07235 2.9104166,2.9104166 0 0 1 0.01395,0.07235 2.9104166,2.9104166 0 0 1 0.01188,0.07286 2.9104166,2.9104166 0 0 1 0.01034,0.07286 2.9104166,2.9104166 0 0 1 0.0088,0.07338 2.9104166,2.9104166 0 0 1 0.0062,0.07338 2.9104166,2.9104166 0 0 1 0.0046,0.0739 2.9104166,2.9104166 0 0 1 0.0026,0.07338 2.9104166,2.9104166 0 0 1 0.001,0.0708 2.9104166,2.9104166 0 0 1 -0.001,0.0739 2.9104166,2.9104166 0 0 1 -0.0026,0.07338 2.9104166,2.9104166 0 0 1 -0.0046,0.0739 2.9104166,2.9104166 0 0 1 -0.0067,0.07338 2.9104166,2.9104166 0 0 1 -0.0088,0.07338 2.9104166,2.9104166 0 0 1 -0.0098,0.07286 2.9104166,2.9104166 0 0 1 -0.0124,0.07286 2.9104166,2.9104166 0 0 1 -0.01395,0.07235 2.9104166,2.9104166 0 0 1 -0.0155,0.07235 2.9104166,2.9104166 0 0 1 -0.01757,0.07131 2.9104166,2.9104166 0 0 1 -0.01963,0.07131 2.9104166,2.9104166 0 0 1 -0.02119,0.0708 2.9104166,2.9104166 0 0 1 -0.02274,0.07028 2.9104166,2.9104166 0 0 1 -0.02481,0.06925 2.9104166,2.9104166 0 0 1 -0.02636,0.06873 2.9104166,2.9104166 0 0 1 -0.02842,0.06821 2.9104166,2.9104166 0 0 1 -0.02997,0.0677 2.9104166,2.9104166 0 0 1 -0.03152,0.06666 2.9104166,2.9104166 0 0 1 -0.03359,0.06563 2.9104166,2.9104166 0 0 1 -0.03514,0.06511 2.9104166,2.9104166 0 0 1 -0.03669,0.06408 2.9104166,2.9104166 0 0 1 -0.03824,0.06305 2.9104166,2.9104166 0 0 1 -0.03979,0.06201 2.9104166,2.9104166 0 0 1 -0.04134,0.06098 2.9104166,2.9104166 0 0 1 -0.04289,0.05994 2.9104166,2.9104166 0 0 1 -0.04444,0.05891 2.9104166,2.9104166 0 0 1 -0.04599,0.05788 2.9104166,2.9104166 0 0 1 -0.04754,0.05685 2.9104166,2.9104166 0 0 1 -0.04857,0.05529 2.9104166,2.9104166 0 0 1 -0.05012,0.05374 2.9104166,2.9104166 0 0 1 -0.05168,0.05271 2.9104166,2.9104166 0 0 1 -0.05271,0.05168 2.9104166,2.9104166 0 0 1 -0.05426,0.05013 2.9104166,2.9104166 0 0 1 -0.0553,0.04858 2.9104166,2.9104166 0 0 1 -0.05684,0.04754 2.9104166,2.9104166 0 0 1 -0.05788,0.04599 2.9104166,2.9104166 0 0 1 -0.05891,0.04444 2.9104166,2.9104166 0 0 1 -0.05994,0.04289 2.9104166,2.9104166 0 0 1 -0.0615,0.04134 2.9104166,2.9104166 0 0 1 -0.06253,0.03979 2.9104166,2.9104166 0 0 1 -0.06305,0.03773 2.9104166,2.9104166 0 0 1 -0.06408,0.03669 2.9104166,2.9104166 0 0 1 -0.0646,0.03514 2.9104166,2.9104166 0 0 1 -0.06615,0.03307 2.9104166,2.9104166 0 0 1 -0.06666,0.03152 2.9104166,2.9104166 0 0 1 -0.06718,0.02997 2.9104166,2.9104166 0 0 1 -0.06821,0.02842 2.9104166,2.9104166 0 0 1 -0.06925,0.02635 2.9104166,2.9104166 0 0 1 -0.06925,0.02481 2.9104166,2.9104166 0 0 1 -0.07028,0.02274 2.9104166,2.9104166 0 0 1 -0.0708,0.02119 2.9104166,2.9104166 0 0 1 -0.07131,0.01912 2.9104166,2.9104166 0 0 1 -0.07131,0.01757 2.9104166,2.9104166 0 0 1 -0.07235,0.01602 2.9104166,2.9104166 0 0 1 -0.07235,0.01344 2.9104166,2.9104166 0 0 1 -0.07286,0.0124 2.9104166,2.9104166 0 0 1 -0.07286,0.0098 2.9104166,2.9104166 0 0 1 -0.07338,0.0083 2.9104166,2.9104166 0 0 1 -0.0739,0.0067 2.9104166,2.9104166 0 0 1 -0.07338,0.0046 2.9104166,2.9104166 0 0 1 -0.0739,0.0026 2.9104166,2.9104166 0 0 1 -0.07028,0.001 2.9104166,2.9104166 0 0 1 -0.0739,-0.001 2.9104166,2.9104166 0 0 1 -0.0739,-0.0026 2.9104166,2.9104166 0 0 1 -0.07338,-0.0052 2.9104166,2.9104166 0 0 1 -0.07338,-0.0062 2.9104166,2.9104166 0 0 1 -0.07338,-0.0083 2.9104166,2.9104166 0 0 1 -0.07338,-0.01034 2.9104166,2.9104166 0 0 1 -0.07234,-0.0124 2.9104166,2.9104166 0 0 1 -0.07286,-0.01396 2.9104166,2.9104166 0 0 1 -0.07183,-0.0155 2.9104166,2.9104166 0 0 1 -0.07183,-0.01757 2.9104166,2.9104166 0 0 1 -0.07131,-0.01964 2.9104166,2.9104166 0 0 1 -0.07028,-0.02119 2.9104166,2.9104166 0 0 1 -0.07028,-0.02274 2.9104166,2.9104166 0 0 1 -0.06925,-0.02481 2.9104166,2.9104166 0 0 1 -0.06925,-0.02687 2.9104166,2.9104166 0 0 1 -0.06821,-0.02791 2.9104166,2.9104166 0 0 1 -0.06718,-0.02997 2.9104166,2.9104166 0 0 1 -0.06666,-0.03204 2.9104166,2.9104166 0 0 1 -0.06563,-0.03307 2.9104166,2.9104166 0 0 1 -0.06511,-0.03514 2.9104166,2.9104166 0 0 1 -0.06408,-0.03669 2.9104166,2.9104166 0 0 1 -0.06305,-0.03824 2.9104166,2.9104166 0 0 1 -0.06201,-0.03979 2.9104166,2.9104166 0 0 1 -0.0615,-0.04134 2.9104166,2.9104166 0 0 1 -0.05994,-0.04289 2.9104166,2.9104166 0 0 1 -0.05891,-0.04444 2.9104166,2.9104166 0 0 1 -0.05736,-0.04599 2.9104166,2.9104166 0 0 1 -0.05684,-0.04754 2.9104166,2.9104166 0 0 1 -0.05529,-0.04857 2.9104166,2.9104166 0 0 1 -0.05426,-0.05013 2.9104166,2.9104166 0 0 1 -0.05271,-0.05168 2.9104166,2.9104166 0 0 1 -0.05116,-0.05271 2.9104166,2.9104166 0 0 1 -0.05012,-0.05426 2.9104166,2.9104166 0 0 1 -0.04909,-0.0553 2.9104166,2.9104166 0 0 1 -0.04702,-0.05684 2.9104166,2.9104166 0 0 1 -0.04599,-0.05788 2.9104166,2.9104166 0 0 1 -0.04444,-0.05891 2.9104166,2.9104166 0 0 1 -0.04289,-0.05994 2.9104166,2.9104166 0 0 1 -0.04134,-0.06098 2.9104166,2.9104166 0 0 1 -0.03979,-0.06253 2.9104166,2.9104166 0 0 1 -0.03824,-0.06304 2.9104166,2.9104166 0 0 1 -0.03669,-0.06408 2.9104166,2.9104166 0 0 1 -0.03462,-0.06511 2.9104166,2.9104166 0 0 1 -0.03359,-0.06563 2.9104166,2.9104166 0 0 1 -0.03152,-0.06666 2.9104166,2.9104166 0 0 1 -0.02997,-0.0677 2.9104166,2.9104166 0 0 1 -0.02791,-0.06821 2.9104166,2.9104166 0 0 1 -0.02636,-0.06873 2.9104166,2.9104166 0 0 1 -0.0248,-0.06925 2.9104166,2.9104166 0 0 1 -0.02274,-0.07028 2.9104166,2.9104166 0 0 1 -0.02119,-0.0708 2.9104166,2.9104166 0 0 1 -0.01964,-0.07131 2.9104166,2.9104166 0 0 1 -0.01757,-0.07183 2.9104166,2.9104166 0 0 1 -0.0155,-0.07183 2.9104166,2.9104166 0 0 1 -0.01395,-0.07235 2.9104166,2.9104166 0 0 1 -0.01189,-0.07286 2.9104166,2.9104166 0 0 1 -0.01033,-0.07338 2.9104166,2.9104166 0 0 1 -0.0083,-0.07286 2.9104166,2.9104166 0 0 1 -0.0062,-0.0739 2.9104166,2.9104166 0 0 1 -0.0046,-0.07338 2.9104166,2.9104166 0 0 1 -0.0026,-0.0739 2.9104166,2.9104166 0 0 1 -10e-4,-0.07028 2.9104166,2.9104166 0 0 1 10e-4,-0.0739 2.9104166,2.9104166 0 0 1 0.0026,-0.0739 2.9104166,2.9104166 0 0 1 0.0046,-0.07338 2.9104166,2.9104166 0 0 1 0.0067,-0.07338 2.9104166,2.9104166 0 0 1 0.0083,-0.07338 2.9104166,2.9104166 0 0 1 0.01034,-0.07338 2.9104166,2.9104166 0 0 1 0.01188,-0.07286 2.9104166,2.9104166 0 0 1 0.01395,-0.07235 2.9104166,2.9104166 0 0 1 0.01602,-0.07183 2.9104166,2.9104166 0 0 1 0.01757,-0.07183 2.9104166,2.9104166 0 0 1 0.01963,-0.07131 2.9104166,2.9104166 0 0 1 0.02119,-0.07028 2.9104166,2.9104166 0 0 1 0.02274,-0.07028 2.9104166,2.9104166 0 0 1 0.0248,-0.06976 2.9104166,2.9104166 0 0 1 0.02636,-0.06873 2.9104166,2.9104166 0 0 1 0.02842,-0.06821 2.9104166,2.9104166 0 0 1 0.02997,-0.06718 2.9104166,2.9104166 0 0 1 0.03152,-0.06666 2.9104166,2.9104166 0 0 1 0.03359,-0.06614 2.9104166,2.9104166 0 0 1 0.03514,-0.0646 2.9104166,2.9104166 0 0 1 0.03669,-0.06408 2.9104166,2.9104166 0 0 1 0.03824,-0.06304 2.9104166,2.9104166 0 0 1 0.03979,-0.06201 2.9104166,2.9104166 0 0 1 0.04134,-0.0615 2.9104166,2.9104166 0 0 1 0.04289,-0.05994 2.9104166,2.9104166 0 0 1 0.04444,-0.05891 2.9104166,2.9104166 0 0 1 0.04599,-0.05788 2.9104166,2.9104166 0 0 1 0.04703,-0.05633 2.9104166,2.9104166 0 0 1 0.04909,-0.05529 2.9104166,2.9104166 0 0 1 0.05012,-0.05426 2.9104166,2.9104166 0 0 1 0.05168,-0.05271 2.9104166,2.9104166 0 0 1 0.05271,-0.05168 2.9104166,2.9104166 0 0 1 0.05426,-0.05013 2.9104166,2.9104166 0 0 1 0.0553,-0.04858 2.9104166,2.9104166 0 0 1 0.05684,-0.04702 2.9104166,2.9104166 0 0 1 0.05788,-0.04599 2.9104166,2.9104166 0 0 1 0.05891,-0.04444 2.9104166,2.9104166 0 0 1 0.05994,-0.04289 2.9104166,2.9104166 0 0 1 0.06098,-0.04134 2.9104166,2.9104166 0 0 1 0.06201,-0.03979 2.9104166,2.9104166 0 0 1 0.06356,-0.03824 2.9104166,2.9104166 0 0 1 0.06408,-0.03669 2.9104166,2.9104166 0 0 1 0.0646,-0.03462 2.9104166,2.9104166 0 0 1 0.06615,-0.03359 2.9104166,2.9104166 0 0 1 0.06666,-0.03152 2.9104166,2.9104166 0 0 1 0.06718,-0.02997 2.9104166,2.9104166 0 0 1 0.06822,-0.0279 2.9104166,2.9104166 0 0 1 0.06925,-0.02636 2.9104166,2.9104166 0 0 1 0.06925,-0.0248 2.9104166,2.9104166 0 0 1 0.07028,-0.02274 2.9104166,2.9104166 0 0 1 0.0708,-0.02119 2.9104166,2.9104166 0 0 1 0.0708,-0.01964 2.9104166,2.9104166 0 0 1 0.07183,-0.01757 2.9104166,2.9104166 0 0 1 0.07235,-0.01551 2.9104166,2.9104166 0 0 1 0.07235,-0.01395 2.9104166,2.9104166 0 0 1 0.07286,-0.01188 2.9104166,2.9104166 0 0 1 0.07286,-0.01034 2.9104166,2.9104166 0 0 1 0.07338,-0.0083 2.9104166,2.9104166 0 0 1 0.07338,-0.0062 2.9104166,2.9104166 0 0 1 0.0739,-0.0047 2.9104166,2.9104166 0 0 1 0.0739,-0.0031 2.9104166,2.9104166 0 0 1 0.07028,-5.16e-4 z"
           inkscape:export-xdpi="96"
           inkscape:export-ydpi="96" />
        <path
           id="path1498"
           style="opacity:1;fill:#000000;stroke-width:0.262822"
           d="M 50.757121,94.888345 V 92.165 c 0,-0.538898 0.05429,-1.064504 0.157612,-1.571998 0.103322,-0.507495 0.255802,-0.996625 0.452168,-1.462445 0.196373,-0.465812 0.436575,-0.908529 0.715719,-1.322398 0.279146,-0.413869 0.597135,-0.79919 0.94878,-1.150834 0.351644,-0.351645 0.736965,-0.669634 1.150834,-0.94878 0.413869,-0.279146 0.85658,-0.519348 1.322401,-0.715719 0.465817,-0.196371 0.954947,-0.348846 1.462442,-0.452168 0.507494,-0.103322 1.0331,-0.157612 1.571998,-0.157612 h 6.248712 v -2.66237 H 39.225008 a 25.646568,21.969988 0 0 1 0.124023,0.06459 25.646568,21.969988 0 0 1 0.19327,0.102317 25.646568,21.969988 0 0 1 0.192236,0.10387 25.646568,21.969988 0 0 1 0.190685,0.104905 25.646568,21.969988 0 0 1 0.190169,0.106453 25.646568,21.969988 0 0 1 0.188619,0.108003 25.646568,21.969988 0 0 1 0.187587,0.109556 25.646568,21.969988 0 0 1 0.186552,0.110587 25.646568,21.969988 0 0 1 0.185518,0.112136 25.646568,21.969988 0 0 1 0.184484,0.113689 25.646568,21.969988 0 0 1 0.182935,0.115239 25.646568,21.969988 0 0 1 0.181901,0.116271 25.646568,21.969988 0 0 1 0.180351,0.117822 25.646568,21.969988 0 0 1 0.179835,0.119375 25.646568,21.969988 0 0 1 0.177765,0.120404 25.646568,21.969988 0 0 1 0.177252,0.121957 25.646568,21.969988 0 0 1 0.1757,0.122989 25.646568,21.969988 0 0 1 0.174148,0.124542 25.646568,21.969988 0 0 1 0.173117,0.125573 25.646568,21.969988 0 0 1 0.171567,0.127125 25.646568,21.969988 0 0 1 0.170532,0.128672 25.646568,21.969988 0 0 1 0.169497,0.129709 25.646568,21.969988 0 0 1 0.167431,0.130742 25.646568,21.969988 0 0 1 0.166399,0.132291 25.646568,21.969988 0 0 1 0.165365,0.133842 25.646568,21.969988 0 0 1 0.163298,0.134874 25.646568,21.969988 0 0 1 0.162263,0.135911 25.646568,21.969988 0 0 1 0.161232,0.136941 25.646568,21.969988 0 0 1 0.159163,0.138493 25.646568,21.969988 0 0 1 0.158128,0.139528 25.646568,21.969988 0 0 1 0.156581,0.141076 25.646568,21.969988 0 0 1 0.15503,0.142111 25.646568,21.969988 0 0 1 0.153479,0.143142 25.646568,21.969988 0 0 1 0.151926,0.144179 25.646568,21.969988 0 0 1 0.150898,0.145727 25.646568,21.969988 0 0 1 0.148828,0.146244 25.646568,21.969988 0 0 1 0.147793,0.147793 25.646568,21.969988 0 0 1 0.146246,0.148828 25.646568,21.969988 0 0 1 0.144177,0.150379 25.646568,21.969988 0 0 1 0.143142,0.150897 25.646568,21.969988 0 0 1 0.141595,0.151929 25.646568,21.969988 0 0 1 0.139525,0.153477 25.646568,21.969988 0 0 1 0.138493,0.153995 25.646568,21.969988 0 0 1 0.136428,0.155549 25.646568,21.969988 0 0 1 0.134874,0.156062 25.646568,21.969988 0 0 1 0.133326,0.157612 25.646568,21.969988 0 0 1 0.131773,0.158131 25.646568,21.969988 0 0 1 0.130225,0.159679 25.646568,21.969988 0 0 1 0.128675,0.160197 25.646568,21.969988 0 0 1 0.126608,0.161232 25.646568,21.969988 0 0 1 0.125056,0.162263 25.646568,21.969988 0 0 1 0.123507,0.163298 25.646568,21.969988 0 0 1 0.121957,0.163815 25.646568,21.969988 0 0 1 0.119888,0.165364 25.646568,21.969988 0 0 1 0.11834,0.165881 25.646568,21.969988 0 0 1 0.116787,0.166915 25.646568,21.969988 0 0 1 0.114724,0.167431 25.646568,21.969988 0 0 1 0.11317,0.168981 25.646568,21.969988 0 0 1 0.111622,0.168984 25.646568,21.969988 0 0 1 0.109554,0.170532 25.646568,21.969988 0 0 1 0.108003,0.171048 25.646568,21.969988 0 0 1 0.105936,0.172082 25.646568,21.969988 0 0 1 0.104386,0.172601 25.646568,21.969988 0 0 1 0.102838,0.173633 25.646568,21.969988 0 0 1 0.100767,0.174149 25.646568,21.969988 0 0 1 0.0987,0.174667 25.646568,21.969988 0 0 1 0.09715,0.176215 25.646568,21.969988 0 0 1 0.0956,0.176218 25.646568,21.969988 0 0 1 0.09353,0.17725 25.646568,21.969988 0 0 1 0.09147,0.177765 25.646568,21.969988 0 0 1 0.08992,0.1788 25.646568,21.969988 0 0 1 0.08785,0.179319 25.646568,21.969988 0 0 1 0.0863,0.179835 25.646568,21.969988 0 0 1 0.08423,0.18035 25.646568,21.969988 0 0 1 0.08217,0.181383 25.646568,21.969988 0 0 1 0.08062,0.181901 25.646568,21.969988 0 0 1 0.07855,0.182419 25.646568,21.969988 0 0 1 0.077,0.182933 25.646568,21.969988 0 0 1 0.07493,0.183452 25.646568,21.969988 0 0 1 0.07286,0.184486 25.646568,21.969988 0 0 1 0.0708,0.184483 25.646568,21.969988 0 0 1 0.06925,0.185002 25.646568,21.969988 0 0 1 0.06718,0.186037 25.646568,21.969988 0 0 1 0.06511,0.186034 25.646568,21.969988 0 0 1 0.06356,0.187068 25.646568,21.969988 0 0 1 0.06149,0.187071 25.646568,21.969988 0 0 1 0.05943,0.187584 25.646568,21.969988 0 0 1 0.0072,0.02377 z" />
        <path
           id="rect1520"
           style="opacity:1;fill:#000000;stroke-width:0.244459"
           d="m 23.392382,81.720673 h 26.398836 c 0.543449,0 0.980955,0.437506 0.980955,0.980955 v 12.543634 c 0,0.543449 -0.437506,0.980955 -0.980955,0.980955 H 23.392382 c -0.54345,0 -0.980955,-0.437506 -0.980955,-0.980955 V 82.701628 c 0,-0.543449 0.437505,-0.980955 0.980955,-0.980955 z" />
        <path
           id="rect833"
           style="fill:#000000;stroke-width:0.219411"
           d="m 64.722908,81.851997 h 4.5122 v 2.531174 h -4.5122 z" />
      </g>
    </g>
  </g>
</svg>
